<svg width="71" height="24" viewBox="0 0 71 24" fill="none" xmlns="http://www.w3.org/2000/svg">
<path d="M36.2433 16H29.7433L28.5033 19H25.1833L31.4233 5H34.6233L40.8833 19H37.4833L36.2433 16ZM35.2233 13.54L33.0033 8.18L30.7833 13.54H35.2233ZM52.6158 11.72C53.4158 11.9733 54.0424 12.4 54.4958 13C54.9491 13.5867 55.1758 14.3133 55.1758 15.18C55.1758 16.4067 54.6958 17.3533 53.7358 18.02C52.7891 18.6733 51.4024 19 49.5758 19H42.3358V5H49.1758C50.8824 5 52.1891 5.32667 53.0958 5.98C54.0158 6.63333 54.4758 7.52 54.4758 8.64C54.4758 9.32 54.3091 9.92667 53.9758 10.46C53.6558 10.9933 53.2024 11.4133 52.6158 11.72ZM45.5558 7.44V10.74H48.7758C49.5758 10.74 50.1824 10.6 50.5958 10.32C51.0091 10.04 51.2158 9.62667 51.2158 9.08C51.2158 8.53333 51.0091 8.12667 50.5958 7.86C50.1824 7.58 49.5758 7.44 48.7758 7.44H45.5558ZM49.3358 16.56C50.1891 16.56 50.8291 16.42 51.2558 16.14C51.6958 15.86 51.9158 15.4267 51.9158 14.84C51.9158 13.68 51.0558 13.1 49.3358 13.1H45.5558V16.56H49.3358ZM64.3288 19.24C62.9021 19.24 61.6088 18.9333 60.4488 18.32C59.3021 17.6933 58.3954 16.8333 57.7288 15.74C57.0754 14.6333 56.7488 13.3867 56.7488 12C56.7488 10.6133 57.0754 9.37333 57.7288 8.28C58.3954 7.17333 59.3021 6.31333 60.4488 5.7C61.6088 5.07333 62.9088 4.76 64.3488 4.76C65.5621 4.76 66.6554 4.97333 67.6288 5.4C68.6154 5.82667 69.4421 6.44 70.1088 7.24L68.0288 9.16C67.0821 8.06667 65.9088 7.52 64.5088 7.52C63.6421 7.52 62.8688 7.71333 62.1888 8.1C61.5088 8.47333 60.9754 9 60.5888 9.68C60.2154 10.36 60.0288 11.1333 60.0288 12C60.0288 12.8667 60.2154 13.64 60.5888 14.32C60.9754 15 61.5088 15.5333 62.1888 15.92C62.8688 16.2933 63.6421 16.48 64.5088 16.48C65.9088 16.48 67.0821 15.9267 68.0288 14.82L70.1088 16.74C69.4421 17.5533 68.6154 18.1733 67.6288 18.6C66.6421 19.0267 65.5421 19.24 64.3288 19.24Z" fill="#2F2F2F"/>
<path d="M16.2875 4L3 19H20" stroke="#2F2F2F" stroke-width="2"/>
</svg>
