<svg width="72" height="24" viewBox="0 0 72 24" fill="none" xmlns="http://www.w3.org/2000/svg">
<path d="M37.94 11.72C38.74 11.9733 39.3667 12.4 39.82 13C40.2733 13.5867 40.5 14.3133 40.5 15.18C40.5 16.4067 40.02 17.3533 39.06 18.02C38.1133 18.6733 36.7267 19 34.9 19H27.66V5H34.5C36.2067 5 37.5133 5.32667 38.42 5.98C39.34 6.63333 39.8 7.52 39.8 8.64C39.8 9.32 39.6333 9.92667 39.3 10.46C38.98 10.9933 38.5267 11.4133 37.94 11.72ZM30.88 7.44V10.74H34.1C34.9 10.74 35.5067 10.6 35.92 10.32C36.3333 10.04 36.54 9.62667 36.54 9.08C36.54 8.53333 36.3333 8.12667 35.92 7.86C35.5067 7.58 34.9 7.44 34.1 7.44H30.88ZM34.66 16.56C35.5133 16.56 36.1533 16.42 36.58 16.14C37.02 15.86 37.24 15.4267 37.24 14.84C37.24 13.68 36.38 13.1 34.66 13.1H30.88V16.56H34.66ZM49.653 19.24C48.2263 19.24 46.933 18.9333 45.773 18.32C44.6263 17.6933 43.7196 16.8333 43.053 15.74C42.3996 14.6333 42.073 13.3867 42.073 12C42.073 10.6133 42.3996 9.37333 43.053 8.28C43.7196 7.17333 44.6263 6.31333 45.773 5.7C46.933 5.07333 48.233 4.76 49.673 4.76C50.8863 4.76 51.9796 4.97333 52.953 5.4C53.9396 5.82667 54.7663 6.44 55.433 7.24L53.353 9.16C52.4063 8.06667 51.233 7.52 49.833 7.52C48.9663 7.52 48.193 7.71333 47.513 8.1C46.833 8.47333 46.2996 9 45.913 9.68C45.5396 10.36 45.353 11.1333 45.353 12C45.353 12.8667 45.5396 13.64 45.913 14.32C46.2996 15 46.833 15.5333 47.513 15.92C48.193 16.2933 48.9663 16.48 49.833 16.48C51.233 16.48 52.4063 15.9267 53.353 14.82L55.433 16.74C54.7663 17.5533 53.9396 18.1733 52.953 18.6C51.9663 19.0267 50.8663 19.24 49.653 19.24ZM66.5675 16H60.0675L58.8275 19H55.5075L61.7475 5H64.9475L71.2075 19H67.8075L66.5675 16ZM65.5475 13.54L63.3275 8.18L61.1075 13.54H65.5475Z" fill="#2F2F2F"/>
<path d="M16.2875 4L3 19H20" stroke="#2F2F2F" stroke-width="2"/>
</svg>
