<svg width="71" height="24" viewBox="0 0 71 24" fill="none" xmlns="http://www.w3.org/2000/svg">
<path d="M37.4009 11.72C38.2009 11.9733 38.8276 12.4 39.2809 13C39.7343 13.5867 39.9609 14.3133 39.9609 15.18C39.9609 16.4067 39.4809 17.3533 38.5209 18.02C37.5743 18.6733 36.1876 19 34.3609 19H27.1209V5H33.9609C35.6676 5 36.9743 5.32667 37.8809 5.98C38.8009 6.63333 39.2609 7.52 39.2609 8.64C39.2609 9.32 39.0943 9.92667 38.7609 10.46C38.4409 10.9933 37.9876 11.4133 37.4009 11.72ZM30.3409 7.44V10.74H33.5609C34.3609 10.74 34.9676 10.6 35.3809 10.32C35.7943 10.04 36.0009 9.62667 36.0009 9.08C36.0009 8.53333 35.7943 8.12667 35.3809 7.86C34.9676 7.58 34.3609 7.44 33.5609 7.44H30.3409ZM34.1209 16.56C34.9743 16.56 35.6143 16.42 36.0409 16.14C36.4809 15.86 36.7009 15.4267 36.7009 14.84C36.7009 13.68 35.8409 13.1 34.1209 13.1H30.3409V16.56H34.1209ZM51.6339 16H45.1339L43.8939 19H40.5739L46.8139 5H50.0139L56.2739 19H52.8739L51.6339 16ZM50.6139 13.54L48.3939 8.18L46.1739 13.54H50.6139ZM64.2311 19.24C62.8044 19.24 61.5111 18.9333 60.3511 18.32C59.2044 17.6933 58.2978 16.8333 57.6311 15.74C56.9778 14.6333 56.6511 13.3867 56.6511 12C56.6511 10.6133 56.9778 9.37333 57.6311 8.28C58.2978 7.17333 59.2044 6.31333 60.3511 5.7C61.5111 5.07333 62.8111 4.76 64.2511 4.76C65.4644 4.76 66.5578 4.97333 67.5311 5.4C68.5178 5.82667 69.3444 6.44 70.0111 7.24L67.9311 9.16C66.9844 8.06667 65.8111 7.52 64.4111 7.52C63.5444 7.52 62.7711 7.71333 62.0911 8.1C61.4111 8.47333 60.8778 9 60.4911 9.68C60.1178 10.36 59.9311 11.1333 59.9311 12C59.9311 12.8667 60.1178 13.64 60.4911 14.32C60.8778 15 61.4111 15.5333 62.0911 15.92C62.7711 16.2933 63.5444 16.48 64.4111 16.48C65.8111 16.48 66.9844 15.9267 67.9311 14.82L70.0111 16.74C69.3444 17.5533 68.5178 18.1733 67.5311 18.6C66.5444 19.0267 65.4444 19.24 64.2311 19.24Z" fill="#2F2F2F"/>
<path d="M16.2875 4L3 19H20" stroke="#2F2F2F" stroke-width="2"/>
</svg>
