<svg width="201" height="106" viewBox="0 0 201 106" fill="none" xmlns="http://www.w3.org/2000/svg">
<path d="M3.74463 105.14C2.24046 105.139 0.998125 103.922 1.00002 102.389L1.02173 84.8121C1.02358 83.3079 2.24003 82.0656 3.77312 82.0675L17.4553 82.0844C17.6422 71.295 19.8535 60.8553 24.06 50.9677C28.2666 41.0222 34.2943 32.1203 41.9692 24.4643C49.6442 16.8083 58.5609 10.8026 68.5168 6.62059C78.8199 2.29435 89.7568 0.109455 101.009 0.123351C112.261 0.137247 123.193 2.34915 133.485 6.72975C143.431 10.9364 152.333 16.964 159.989 24.639C167.645 32.3139 173.65 41.2307 177.832 51.1865C181.986 61.0556 184.2 71.5296 184.36 82.3194L198.042 82.3363C199.547 82.3381 200.789 83.5546 200.787 85.0877L200.765 102.665C200.763 104.169 199.547 105.411 198.014 105.409L3.74459 105.169L3.74463 105.14ZM154.248 82.2822C153.56 53.5574 129.812 30.2713 100.972 30.2357C72.1324 30.2001 48.3262 53.4275 47.5676 82.1505L154.248 82.2822Z" fill="#239AD6"/>
<path d="M3.74395 104.888C2.61582 104.887 1.69132 103.96 1.69271 102.832L1.71493 84.8408C1.71632 83.7127 2.64311 82.7882 3.77124 82.7896L18.1476 82.8074C18.2479 71.8733 20.4594 61.289 24.695 51.2857C28.8726 41.4269 34.8423 32.5828 42.4593 25.0135C50.0764 17.4153 58.9352 11.4674 68.7753 7.31415C78.9917 2.95888 89.8417 0.802797 101.007 0.816586C112.173 0.830375 123.018 3.04217 133.223 7.36481C143.082 11.5424 151.926 17.5121 159.495 25.1291C167.094 32.7462 173.042 41.605 177.195 51.4451C181.406 61.4588 183.591 72.0775 183.664 82.9828L198.041 83.0006C199.169 83.002 200.093 83.9288 200.092 85.0569L200.07 103.048C200.068 104.176 199.141 105.101 198.013 105.099L3.74398 104.859L3.74395 104.888ZM154.94 82.9474C154.601 53.4999 130.477 29.548 100.972 29.5115C71.467 29.4751 47.255 53.3673 46.8715 82.8139L154.94 82.9474Z" fill="#7CCED6"/>
<path opacity="0.4" d="M183.259 83.6775C183.115 83.6773 182.999 83.5614 182.999 83.4168C182.984 72.4248 180.828 61.7772 176.588 51.7345C172.464 41.9523 166.544 33.1803 159.033 25.6212C151.521 18.0911 142.735 12.1503 132.963 8.00176C122.844 3.70816 112.086 1.52539 101.007 1.51171C89.9286 1.49803 79.1653 3.65422 69.0358 7.92281C59.2536 12.0472 50.4816 17.9663 42.9225 25.4778C35.3924 32.9894 29.4516 41.7757 25.3031 51.5477C21.0095 61.6666 18.8268 72.3956 18.8131 83.4744L3.77138 83.4558C3.01929 83.4549 2.41109 84.0616 2.41016 84.8137L2.38845 102.391C2.38752 103.143 2.99423 103.751 3.74631 103.752L198.016 103.992C198.768 103.993 199.376 103.386 199.377 102.634L199.399 85.0569C199.4 84.3049 198.793 83.6967 198.041 83.6957L183.259 83.6775ZM46.1774 83.5082C46.2147 53.338 70.8035 28.8099 100.974 28.8471C131.144 28.8844 155.672 53.4732 155.635 83.6434L46.1774 83.5082Z" fill="#46A2DA"/>
<circle id="rotation" opacity="0.8" cx="189.5" cy="94.5" r="5.5" fill="#7CCED6"/>
<g clip-path="url(#clip0_17_16)" id="rotation">
<path d="M193.037 91.7428C192.874 91.7279 192.729 91.8485 192.714 92.0121L192.675 92.4445C192.006 91.3943 190.845 90.6923 189.5 90.6923C188.053 90.6923 186.778 91.5181 186.145 92.7576C186.07 92.9039 186.128 93.0831 186.275 93.1578C186.421 93.2326 186.6 93.1745 186.675 93.0282C187.21 91.9792 188.286 91.2873 189.5 91.2873C190.606 91.2873 191.605 91.8634 192.177 92.7658L191.752 92.4629C191.619 92.3674 191.433 92.3984 191.337 92.5321C191.242 92.6658 191.273 92.8516 191.407 92.9471L192.693 93.8657C192.881 94.0001 193.141 93.877 193.162 93.6506L193.306 92.0661C193.321 91.9025 193.201 91.7578 193.037 91.7428Z" fill="white"/>
<path d="M192.726 95.8422C192.579 95.7675 192.4 95.8255 192.325 95.9718C191.79 97.0208 190.714 97.7128 189.5 97.7128C188.394 97.7128 187.395 97.1367 186.823 96.2342L187.248 96.5371C187.381 96.6326 187.567 96.6016 187.663 96.4679C187.758 96.3342 187.727 96.1485 187.593 96.053L186.307 95.1344C186.121 95.0013 185.859 95.1207 185.838 95.3494L185.694 96.9339C185.679 97.0975 185.799 97.2423 185.963 97.2572C186.127 97.2721 186.271 97.1514 186.286 96.9879L186.326 96.5556C186.994 97.6058 188.155 98.3077 189.5 98.3077C190.947 98.3077 192.222 97.4819 192.855 96.2424C192.93 96.0961 192.872 95.9169 192.726 95.8422Z" fill="white"/>
</g>
<circle id="rotation" opacity="0.8" cx="12.5" cy="94.5" r="5.5" fill="#7CCED6"/>
<g clip-path="url(#clip1_17_16)">
<path d="M16.0372 91.7428C15.8736 91.7279 15.7289 91.8485 15.714 92.0121L15.6745 92.4445C15.0058 91.3943 13.845 90.6923 12.5 90.6923C11.0531 90.6923 9.77792 91.5181 9.14492 92.7576C9.07019 92.9039 9.12823 93.0831 9.27454 93.1578C9.42089 93.2326 9.60004 93.1745 9.67477 93.0282C10.2105 91.9792 11.2863 91.2873 12.5 91.2873C13.6063 91.2873 14.6046 91.8634 15.1766 92.7658L14.7524 92.4629C14.6187 92.3674 14.4329 92.3984 14.3375 92.5321C14.242 92.6658 14.273 92.8516 14.4066 92.9471L15.6929 93.8657C15.8814 94.0001 16.1414 93.877 16.162 93.6506L16.3064 92.0661C16.3214 91.9025 16.2008 91.7578 16.0372 91.7428Z" fill="white"/>
<path d="M15.7255 95.8422C15.5792 95.7675 15.4 95.8255 15.3253 95.9718C14.7896 97.0208 13.7138 97.7128 12.5001 97.7128C11.3938 97.7128 10.3954 97.1367 9.82347 96.2342L10.2476 96.5371C10.3813 96.6326 10.5671 96.6016 10.6626 96.4679C10.7581 96.3342 10.7271 96.1485 10.5934 96.053L9.3072 95.1344C9.121 95.0013 8.85889 95.1207 8.83807 95.3494L8.69363 96.9339C8.67871 97.0975 8.79926 97.2423 8.96286 97.2572C9.12668 97.2721 9.27121 97.1514 9.28611 96.9879L9.32553 96.5556C9.99423 97.6058 11.155 98.3077 12.5001 98.3077C13.947 98.3077 15.2221 97.4819 15.8551 96.2424C15.9299 96.0961 15.8718 95.9169 15.7255 95.8422Z" fill="white"/>
</g>
<circle opacity="0.8" cx="101" cy="95" r="6" fill="#7CCED6"/>
<g clip-path="url(#clip2_17_16)">
<path d="M99.822 92.5481L100.799 92.5481L100.795 93.7712H101.398L101.393 92.5481H102.37L101.096 91.274L99.822 92.5481ZM98.548 96.3702L98.548 95.3935L99.7711 95.3977V94.7947L98.548 94.7989L98.548 93.8221L97.2739 95.0962L98.548 96.3702ZM102.37 97.6443H101.393L101.398 96.4212H100.795L100.799 97.6443L99.822 97.6443L101.096 98.9183L102.37 97.6443ZM103.644 93.8221L103.644 94.7989L102.421 94.7947V95.3977L103.644 95.3935L103.644 96.3702L104.918 95.0962L103.644 93.8221Z" fill="white"/>
</g>
<path d="M20.5279 76.2488L20.4946 76.6234L25.9402 77.1066L25.9735 76.732L20.5279 76.2488Z" fill="white"/>
<path d="M23.0094 62.4186L22.9116 62.7817L28.1904 64.203L28.2882 63.84L23.0094 62.4186Z" fill="white"/>
<path d="M27.8605 49.201L27.7012 49.5416L32.653 51.8581L32.8124 51.5175L27.8605 49.201Z" fill="white"/>
<path d="M34.9431 37.0388L34.7271 37.3466L39.2017 40.488L39.4178 40.1802L34.9431 37.0388Z" fill="white"/>
<path d="M44.0216 26.2941L43.7554 26.5597L47.6163 30.4302L47.8825 30.1646L44.0216 26.2941Z" fill="white"/>
<path d="M54.8391 17.2883L54.5308 17.5036L57.6611 21.986L57.9694 21.7707L54.8391 17.2883Z" fill="white"/>
<path d="M67.0466 10.2968L66.7056 10.4553L69.0098 15.4129L69.3508 15.2544L67.0466 10.2968Z" fill="white"/>
<path d="M80.294 5.52068L79.9307 5.61755L81.339 10.8998L81.7023 10.803L80.294 5.52068Z" fill="white"/>
<path d="M94.1725 3.14451L93.7979 3.17682L94.2676 8.62359L94.6422 8.59128L94.1725 3.14451Z" fill="white"/>
<path d="M107.85 3.16896L107.366 8.61456L107.741 8.64785L108.225 3.20224L107.85 3.16896Z" fill="white"/>
<path d="M121.727 5.59188L120.304 10.8707L120.667 10.9685L122.09 5.68976L121.727 5.59188Z" fill="white"/>
<path d="M134.935 10.3752L132.617 15.3265L132.958 15.4859L135.276 10.5346L134.935 10.3752Z" fill="white"/>
<path d="M147.133 17.4022L143.991 21.8757L144.298 22.0919L147.441 17.6183L147.133 17.4022Z" fill="white"/>
<path d="M157.915 26.4289L154.044 30.2899L154.31 30.5561L158.18 26.6952L157.915 26.4289Z" fill="white"/>
<path d="M166.976 37.193L162.494 40.3239L162.709 40.6321L167.191 37.5013L166.976 37.193Z" fill="white"/>
<path d="M174.029 49.3846L169.072 51.6905L169.231 52.0315L174.188 49.7256L174.029 49.3846Z" fill="white"/>
<path d="M178.844 62.6076L173.562 64.0176L173.659 64.3809L178.941 62.9709L178.844 62.6076Z" fill="white"/>
<path d="M181.308 76.467L175.861 76.9374L175.893 77.3121L181.34 76.8416L181.308 76.467Z" fill="white"/>
<path d="M26.9998 83.2243L20.1733 83.2159L20.1727 83.7655L26.9991 83.7739L26.9998 83.2243Z" fill="white"/>
<path d="M21.4799 69.1876L21.3838 69.7287L28.105 70.9228L28.2012 70.3816L21.4799 69.1876Z" fill="white"/>
<path d="M25.1783 55.6243L24.9897 56.1406L31.4017 58.4831L31.5903 57.9669L25.1783 55.6243Z" fill="white"/>
<path d="M31.188 42.9018L30.9126 43.3774L36.8201 46.7979L37.0955 46.3223L31.188 42.9018Z" fill="white"/>
<path d="M39.2976 31.4101L38.9438 31.8306L44.1675 36.2251L44.5213 35.8046L39.2976 31.4101Z" fill="white"/>
<path d="M49.312 21.4998L48.8906 21.8525L53.2722 27.087L53.6936 26.7343L49.312 21.4998Z" fill="white"/>
<path d="M60.865 13.4986L60.3887 13.7728L63.7946 19.6887L64.2709 19.4145L60.865 13.4986Z" fill="white"/>
<path d="M73.6392 7.612L73.1226 7.79932L75.4493 14.217L75.966 14.0297L73.6392 7.612Z" fill="white"/>
<path d="M87.2435 4.01244L86.7021 4.10724L87.8796 10.8314L88.421 10.7366L87.2435 4.01244Z" fill="white"/>
<path d="M101.266 2.87177L100.717 2.87109L100.708 9.69756L101.258 9.69824L101.266 2.87177Z" fill="white"/>
<path d="M114.751 4.05769L113.556 10.7789L114.097 10.8751L115.292 4.15388L114.751 4.05769Z" fill="white"/>
<path d="M128.359 7.6796L126.017 14.0916L126.533 14.2801L128.875 7.86814L128.359 7.6796Z" fill="white"/>
<path d="M141.093 13.5809L137.673 19.4891L138.149 19.7645L141.569 13.8563L141.093 13.5809Z" fill="white"/>
<path d="M152.644 21.6527L148.25 26.8777L148.671 27.2314L153.064 22.0064L152.644 21.6527Z" fill="white"/>
<path d="M162.626 31.5722L157.39 35.9525L157.743 36.374L162.979 31.9938L162.626 31.5722Z" fill="white"/>
<path d="M170.721 43.0866L164.805 46.4918L165.079 46.9682L170.995 43.5629L170.721 43.0866Z" fill="white"/>
<path d="M176.685 55.8204L170.267 58.1465L170.454 58.6632L176.872 56.3371L176.685 55.8204Z" fill="white"/>
<path d="M180.347 69.4118L173.623 70.59L173.718 71.1313L180.442 69.9532L180.347 69.4118Z" fill="white"/>
<path d="M181.611 83.4152L174.785 83.4068L174.784 83.9564L181.61 83.9648L181.611 83.4152Z" fill="white"/>
<path d="M22.9208 83.335L20.1729 83.3316L20.1725 83.5919L22.9205 83.5953L22.9208 83.335Z" fill="white"/>
<path d="M20.1943 81.9568L20.1895 82.2171L22.9368 82.2684L22.9416 82.0081L20.1943 81.9568Z" fill="white"/>
<path d="M20.237 80.5255L20.2275 80.7857L22.9737 80.8851L22.9831 80.6249L20.237 80.5255Z" fill="white"/>
<path d="M20.2942 79.1217L20.2803 79.3817L23.0242 79.5288L23.0381 79.2688L20.2942 79.1217Z" fill="white"/>
<path d="M20.3832 77.7113L20.3647 77.971L23.1059 78.166L23.1243 77.9063L20.3832 77.7113Z" fill="white"/>
<path d="M20.5147 76.3313L20.4917 76.5906L23.2289 76.8335L23.2519 76.5742L20.5147 76.3313Z" fill="white"/>
<path d="M20.6418 74.9134L20.6143 75.1722L23.3467 75.4628L23.3743 75.2039L20.6418 74.9134Z" fill="white"/>
<path d="M20.8201 73.5337L20.7881 73.792L23.515 74.1303L23.5471 73.872L20.8201 73.5337Z" fill="white"/>
<path d="M21.0014 72.1136L20.9648 72.3714L23.6857 72.7573L23.7222 72.4995L21.0014 72.1136Z" fill="white"/>
<path d="M21.2222 70.7251L21.1812 70.9822L23.8948 71.4156L23.9358 71.1585L21.2222 70.7251Z" fill="white"/>
<path d="M21.4357 69.3307L21.3901 69.587L24.0957 70.0677L24.1413 69.8114L21.4357 69.3307Z" fill="white"/>
<path d="M21.6921 67.9644L21.6421 68.2198L24.3388 68.7475L24.3888 68.492L21.6921 67.9644Z" fill="white"/>
<path d="M21.9753 66.5692L21.9209 66.8238L24.608 67.3984L24.6624 67.1438L21.9753 66.5692Z" fill="white"/>
<path d="M22.3094 65.2111L22.2505 65.4647L24.9273 66.0863L24.9862 65.8327L22.3094 65.2111Z" fill="white"/>
<path d="M22.6248 63.8419L22.5615 64.0944L25.227 64.7624L25.2903 64.5099L22.6248 63.8419Z" fill="white"/>
<path d="M22.9896 62.4822L22.9219 62.7336L25.5752 63.448L25.6429 63.1967L22.9896 62.4822Z" fill="white"/>
<path d="M23.3787 61.1194L23.3066 61.3696L25.9473 62.1302L26.0194 61.88L23.3787 61.1194Z" fill="white"/>
<path d="M23.7825 59.7634L23.7061 60.0123L26.3329 60.819L26.4093 60.5702L23.7825 59.7634Z" fill="white"/>
<path d="M24.1984 58.4243L24.1177 58.6718L26.7302 59.5241L26.8109 59.2766L24.1984 58.4243Z" fill="white"/>
<path d="M24.6559 57.1019L24.5708 57.3479L27.1679 58.2458L27.2529 57.9998L24.6559 57.1019Z" fill="white"/>
<path d="M25.1333 55.7729L25.0439 56.0175L27.625 56.9604L27.7144 56.7159L25.1333 55.7729Z" fill="white"/>
<path d="M25.6307 54.4478L25.5371 54.6907L28.1014 55.6788L28.195 55.4358L25.6307 54.4478Z" fill="white"/>
<path d="M26.1418 53.1192L26.0439 53.3605L28.5906 54.393L28.6884 54.1517L26.1418 53.1192Z" fill="white"/>
<path d="M26.686 51.832L26.584 52.0715L29.1121 53.1483L29.2141 52.9088L26.686 51.832Z" fill="white"/>
<path d="M27.2453 50.5436L27.1392 50.7813L29.648 51.902L29.7542 51.6643L27.2453 50.5436Z" fill="white"/>
<path d="M27.8261 49.2544L27.7158 49.4902L30.2048 50.6545L30.3152 50.4187L27.8261 49.2544Z" fill="white"/>
<path d="M28.4494 47.9792L28.335 48.213L30.8033 49.4208L30.9177 49.1869L28.4494 47.9792Z" fill="white"/>
<path d="M29.0706 46.7243L28.9521 46.9561L31.399 48.2067L31.5175 47.9749L29.0706 46.7243Z" fill="white"/>
<path d="M29.7338 45.4878L29.6113 45.7175L32.0359 47.0106L32.1584 46.7809L29.7338 45.4878Z" fill="white"/>
<path d="M30.4141 44.2468L30.2876 44.4744L32.6893 45.8095L32.8158 45.582L30.4141 44.2468Z" fill="white"/>
<path d="M31.0943 43.0327L30.9639 43.258L33.3419 44.6349L33.4723 44.4096L31.0943 43.0327Z" fill="white"/>
<path d="M31.8306 41.8033L31.6963 42.0263L34.0501 43.4444L34.1844 43.2214L31.8306 41.8033Z" fill="white"/>
<path d="M32.5674 40.6031L32.4292 40.8237L34.7579 42.2827L34.8962 42.0621L32.5674 40.6031Z" fill="white"/>
<path d="M33.3237 39.4411L33.1816 39.6592L35.4845 41.1586L35.6265 40.9405L33.3237 39.4411Z" fill="white"/>
<path d="M34.1107 38.2566L33.9648 38.4722L36.241 40.0117L36.3868 39.7961L34.1107 38.2566Z" fill="white"/>
<path d="M34.9011 37.09L34.7515 37.3031L37.0006 38.8821L37.1502 38.669L34.9011 37.09Z" fill="white"/>
<path d="M35.7221 35.9409L35.5688 36.1513L37.7899 37.7693L37.9432 37.5589L35.7221 35.9409Z" fill="white"/>
<path d="M36.5646 34.8294L36.4077 35.0371L38.6002 36.6935L38.7571 36.4858L36.5646 34.8294Z" fill="white"/>
<path d="M37.4217 33.7171L37.2612 33.9221L39.4245 35.6164L39.585 35.4114L37.4217 33.7171Z" fill="white"/>
<path d="M38.2969 32.6055L38.1328 32.8076L40.2661 34.5397L40.4302 34.3376L38.2969 32.6055Z" fill="white"/>
<path d="M39.2247 31.5255L39.0571 31.7247L41.1599 33.4936L41.3275 33.2944L39.2247 31.5255Z" fill="white"/>
<path d="M40.1305 30.4474L39.9595 30.6437L42.0311 32.4492L42.2022 32.2529L40.1305 30.4474Z" fill="white"/>
<path d="M41.0494 29.4042L40.875 29.5975L42.915 31.4386L43.0894 31.2454L41.0494 29.4042Z" fill="white"/>
<path d="M42.025 28.3624L41.8472 28.5526L43.8547 30.4292L44.0325 30.239L42.025 28.3624Z" fill="white"/>
<path d="M42.9896 27.3339L42.8086 27.5209L44.7831 29.4321L44.9642 29.245L42.9896 27.3339Z" fill="white"/>
<path d="M43.9734 26.3494L43.7891 26.5332L45.7297 28.4787L45.914 28.2948L43.9734 26.3494Z" fill="white"/>
<path d="M44.9893 25.3819L44.8018 25.5625L46.708 27.5417L46.8955 27.3611L44.9893 25.3819Z" fill="white"/>
<path d="M46.0188 24.4041L45.8281 24.5814L47.6997 26.5936L47.8904 26.4163L46.0188 24.4041Z" fill="white"/>
<path d="M47.0628 23.4308L46.8691 23.6048L48.7053 25.6493L48.899 25.4754L47.0628 23.4308Z" fill="white"/>
<path d="M48.0951 22.5072L47.8984 22.6777L49.6988 24.7538L49.8955 24.5833L48.0951 22.5072Z" fill="white"/>
<path d="M49.182 21.5864L48.9824 21.7535L50.7462 23.8606L50.9458 23.6936L49.182 21.5864Z" fill="white"/>
<path d="M50.2841 20.7017L50.0815 20.8653L51.8085 23.0029L52.011 22.8393L50.2841 20.7017Z" fill="white"/>
<path d="M51.3723 19.8361L51.167 19.9962L52.856 22.1636L53.0613 22.0036L51.3723 19.8361Z" fill="white"/>
<path d="M52.4957 18.9839L52.2876 19.1403L53.9386 21.3369L54.1467 21.1805L52.4957 18.9839Z" fill="white"/>
<path d="M53.6517 18.1506L53.4409 18.3033L55.0534 20.5284L55.2642 20.3757L53.6517 18.1506Z" fill="white"/>
<path d="M54.8018 17.3298L54.5884 17.4789L56.1618 19.7319L56.3753 19.5829L54.8018 17.3298Z" fill="white"/>
<path d="M55.9509 16.5455L55.7349 16.6909L57.2687 18.9708L57.4847 18.8255L55.9509 16.5455Z" fill="white"/>
<path d="M57.1228 15.7584L56.9043 15.8999L58.398 18.2065L58.6165 18.0649L57.1228 15.7584Z" fill="white"/>
<path d="M58.302 15.0028L58.0811 15.1405L59.5343 17.4728L59.7553 17.3352L58.302 15.0028Z" fill="white"/>
<path d="M59.509 14.2703L59.2856 14.4041L60.6979 16.7614L60.9212 16.6276L59.509 14.2703Z" fill="white"/>
<path d="M60.7197 13.5664L60.4941 13.6963L61.8652 16.0777L62.0908 15.9478L60.7197 13.5664Z" fill="white"/>
<path d="M61.9642 12.8859L61.7363 13.0118L63.0656 15.4168L63.2934 15.2909L61.9642 12.8859Z" fill="white"/>
<path d="M63.1983 12.2124L62.9683 12.3344L64.2554 14.7621L64.4854 14.6402L63.1983 12.2124Z" fill="white"/>
<path d="M64.4675 11.563L64.2354 11.6809L65.4799 14.1309L65.712 14.013L64.4675 11.563Z" fill="white"/>
<path d="M65.7263 10.9172L65.4922 11.0311L66.6938 13.5024L66.928 13.3886L65.7263 10.9172Z" fill="white"/>
<path d="M67.0002 10.336L66.7642 10.4457L67.9224 12.9376L68.1584 12.8278L67.0002 10.336Z" fill="white"/>
<path d="M68.2643 9.76069L68.0264 9.86627L69.1409 12.3779L69.3788 12.2723L68.2643 9.76069Z" fill="white"/>
<path d="M69.564 9.20095L69.3242 9.30237L70.3947 11.8332L70.6345 11.7318L69.564 9.20095Z" fill="white"/>
<path d="M70.8558 8.65235L70.6143 8.74957L71.6405 11.2987L71.882 11.2015L70.8558 8.65235Z" fill="white"/>
<path d="M72.1865 8.14638L71.9434 8.23938L72.9251 10.8061L73.1682 10.7131L72.1865 8.14638Z" fill="white"/>
<path d="M73.5074 7.65108L73.2627 7.73981L74.1993 10.3232L74.444 10.2345L73.5074 7.65108Z" fill="white"/>
<path d="M74.8317 7.18068L74.5854 7.26514L75.477 9.86442L75.7232 9.77996L74.8317 7.18068Z" fill="white"/>
<path d="M76.1637 6.75037L75.916 6.83051L76.7619 9.44512L77.0096 9.36499L76.1637 6.75037Z" fill="white"/>
<path d="M77.5088 6.3045L77.2598 6.38031L78.06 9.00916L78.3091 8.93335L77.5088 6.3045Z" fill="white"/>
<path d="M78.8714 5.93027L78.6211 6.00171L79.3752 8.64424L79.6255 8.5728L78.8714 5.93027Z" fill="white"/>
<path d="M80.2193 5.55165L79.9678 5.61871L80.6757 8.27383L80.9272 8.20676L80.2193 5.55165Z" fill="white"/>
<path d="M81.5769 5.20595L81.3242 5.26862L81.9857 7.93577L82.2383 7.8731L81.5769 5.20595Z" fill="white"/>
<path d="M82.9642 4.87869L82.7104 4.93695L83.3254 7.61531L83.5792 7.55705L82.9642 4.87869Z" fill="white"/>
<path d="M84.3431 4.59164L84.0884 4.64545L84.6564 7.33392L84.9111 7.28011L84.3431 4.59164Z" fill="white"/>
<path d="M85.7253 4.298L85.4697 4.34735L85.9907 7.04538L86.2463 6.99602L85.7253 4.298Z" fill="white"/>
<path d="M87.1099 4.03383L86.8535 4.07874L87.3275 6.7855L87.5839 6.7406L87.1099 4.03383Z" fill="white"/>
<path d="M88.4955 3.80455L88.2383 3.84497L88.665 6.55964L88.9222 6.51922L88.4955 3.80455Z" fill="white"/>
<path d="M89.8814 3.60452L89.6235 3.64044L90.0027 6.3622L90.2605 6.32628L89.8814 3.60452Z" fill="white"/>
<path d="M91.2877 3.43154L91.0293 3.46295L91.3609 6.1907L91.6193 6.15928L91.2877 3.43154Z" fill="white"/>
<path d="M92.6749 3.29501L92.416 3.3219L92.6998 6.05508L92.9587 6.0282L92.6749 3.29501Z" fill="white"/>
<path d="M94.0885 3.14663L93.8291 3.16901L94.0652 5.9068L94.3246 5.88443L94.0885 3.14663Z" fill="white"/>
<path d="M95.5034 3.03215L95.2437 3.04999L95.4319 5.79157L95.6916 5.77374L95.5034 3.03215Z" fill="white"/>
<path d="M96.9099 2.94819L96.6499 2.96149L96.7902 5.70576L97.0502 5.69247L96.9099 2.94819Z" fill="white"/>
<path d="M98.2978 2.89419L98.0376 2.90295L98.1301 5.64937L98.3903 5.6406L98.2978 2.89419Z" fill="white"/>
<path d="M99.7041 2.86834L99.4438 2.87256L99.4884 5.62001L99.7486 5.61579L99.7041 2.86834Z" fill="white"/>
<path d="M101.122 2.87154L100.861 2.87122L100.858 5.61916L101.118 5.61948L101.122 2.87154Z" fill="white"/>
<path d="M102.285 2.87645L102.234 5.62378L102.494 5.62867L102.546 2.88134L102.285 2.87645Z" fill="white"/>
<path d="M103.687 2.90171L103.587 5.64789L103.847 5.65738L103.947 2.9112L103.687 2.90171Z" fill="white"/>
<path d="M105.093 2.96073L104.944 5.70465L105.204 5.7187L105.353 2.97478L105.093 2.96073Z" fill="white"/>
<path d="M106.501 3.03861L106.307 5.77972L106.567 5.79809L106.761 3.05698L106.501 3.03861Z" fill="white"/>
<path d="M107.913 3.1439L107.671 5.8811L107.93 5.90405L108.172 3.16684L107.913 3.1439Z" fill="white"/>
<path d="M109.299 3.29536L109.008 6.02783L109.267 6.05538L109.557 3.32291L109.299 3.29536Z" fill="white"/>
<path d="M110.711 3.44532L110.372 6.17224L110.63 6.20432L110.969 3.4774L110.711 3.44532Z" fill="white"/>
<path d="M112.099 3.63829L111.712 6.35883L111.97 6.39549L112.357 3.67495L112.099 3.63829Z" fill="white"/>
<path d="M113.496 3.82789L113.063 6.5415L113.32 6.58251L113.753 3.8689L113.496 3.82789Z" fill="white"/>
<path d="M114.895 4.06047L114.413 6.76605L114.669 6.81167L115.151 4.10608L114.895 4.06047Z" fill="white"/>
<path d="M116.277 4.32313L115.75 7.02014L116.006 7.07005L116.533 4.37304L116.277 4.32313Z" fill="white"/>
<path d="M117.652 4.605L117.077 7.29205L117.332 7.34652L117.907 4.65946L117.652 4.605Z" fill="white"/>
<path d="M119.013 4.90111L118.393 7.57794L118.646 7.63673L119.267 4.95989L119.013 4.90111Z" fill="white"/>
<path d="M120.407 5.23934L119.739 7.90485L119.991 7.96818L120.66 5.30268L120.407 5.23934Z" fill="white"/>
<path d="M121.772 5.58211L121.057 8.23547L121.308 8.30316L122.023 5.6498L121.772 5.58211Z" fill="white"/>
<path d="M123.111 5.95351L122.351 8.59418L122.601 8.66621L123.361 6.02555L123.111 5.95351Z" fill="white"/>
<path d="M124.471 6.35089L123.665 8.97803L123.914 9.05438L124.72 6.42724L124.471 6.35089Z" fill="white"/>
<path d="M125.799 6.78943L124.948 9.40222L125.195 9.48287L126.047 6.87007L125.799 6.78943Z" fill="white"/>
<path d="M127.166 7.2262L126.269 9.82355L126.515 9.90856L127.412 7.31121L127.166 7.2262Z" fill="white"/>
<path d="M128.495 7.70859L127.553 10.2897L127.797 10.379L128.74 7.7979L128.495 7.70859Z" fill="white"/>
<path d="M129.797 8.1803L128.809 10.7446L129.052 10.8382L130.04 8.27391L129.797 8.1803Z" fill="white"/>
<path d="M131.113 8.71711L130.079 11.2632L130.32 11.3611L131.354 8.81506L131.113 8.71711Z" fill="white"/>
<path d="M132.401 9.25984L131.325 11.7883L131.564 11.8902L132.64 9.36179L132.401 9.25984Z" fill="white"/>
<path d="M133.691 9.81566L132.569 12.324L132.806 12.4303L133.929 9.92199L133.691 9.81566Z" fill="white"/>
<path d="M134.981 10.3924L133.816 12.8812L134.052 12.9915L135.217 10.5028L134.981 10.3924Z" fill="white"/>
<path d="M136.263 11.0048L135.055 13.4728L135.289 13.5873L136.497 11.1192L136.263 11.0048Z" fill="white"/>
<path d="M137.523 11.6228L136.271 14.0694L136.503 14.188L137.755 11.7414L137.523 11.6228Z" fill="white"/>
<path d="M138.762 12.2859L137.468 14.7101L137.698 14.8327L138.992 12.4084L138.762 12.2859Z" fill="white"/>
<path d="M140.006 12.9417L138.673 15.3442L138.9 15.4706L140.234 13.068L140.006 12.9417Z" fill="white"/>
<path d="M141.243 13.6595L139.866 16.0375L140.091 16.168L141.468 13.79L141.243 13.6595Z" fill="white"/>
<path d="M142.45 14.3706L141.033 16.7249L141.256 16.8592L142.674 14.5048L142.45 14.3706Z" fill="white"/>
<path d="M143.647 15.102L142.187 17.4299L142.407 17.5682L143.867 15.2403L143.647 15.102Z" fill="white"/>
<path d="M144.856 15.844L143.356 18.1465L143.575 18.2886L145.075 15.9861L144.856 15.844Z" fill="white"/>
<path d="M146.02 16.6159L144.48 18.8917L144.696 19.0376L146.236 16.7617L146.02 16.6159Z" fill="white"/>
<path d="M147.167 17.4264L145.589 19.6758L145.802 19.8254L147.38 17.5759L147.167 17.4264Z" fill="white"/>
<path d="M148.317 18.2471L146.698 20.4677L146.909 20.621L148.527 18.4004L148.317 18.2471Z" fill="white"/>
<path d="M149.457 19.0971L147.801 21.2901L148.009 21.447L149.664 19.254L149.457 19.0971Z" fill="white"/>
<path d="M150.578 19.9615L148.884 22.1253L149.089 22.2858L150.783 20.1219L150.578 19.9615Z" fill="white"/>
<path d="M151.672 20.8084L149.94 22.9426L150.143 23.1066L151.874 20.9724L151.672 20.8084Z" fill="white"/>
<path d="M152.775 21.7059L151.006 23.8086L151.205 23.9762L152.974 21.8735L152.775 21.7059Z" fill="white"/>
<path d="M153.836 22.6297L152.03 24.7014L152.227 24.8724L154.032 22.8008L153.836 22.6297Z" fill="white"/>
<path d="M154.902 23.5662L153.062 25.6064L153.255 25.7808L155.096 23.7406L154.902 23.5662Z" fill="white"/>
<path d="M155.928 24.5132L154.052 26.5213L154.242 26.699L156.119 24.6909L155.928 24.5132Z" fill="white"/>
<path d="M156.95 25.4779L155.04 27.4532L155.227 27.6342L157.137 25.6589L156.95 25.4779Z" fill="white"/>
<path d="M157.971 26.4749L156.025 28.4156L156.209 28.5999L158.155 26.6593L157.971 26.4749Z" fill="white"/>
<path d="M158.961 27.4762L156.98 29.3817L157.161 29.5692L159.141 27.6638L158.961 27.4762Z" fill="white"/>
<path d="M159.94 28.4967L157.927 30.3678L158.105 30.5585L160.117 28.6874L159.94 28.4967Z" fill="white"/>
<path d="M160.864 29.5409L158.82 31.3768L158.994 31.5705L161.038 29.7346L160.864 29.5409Z" fill="white"/>
<path d="M161.817 30.5897L159.741 32.3901L159.912 32.5868L161.988 30.7864L161.817 30.5897Z" fill="white"/>
<path d="M162.727 31.6527L160.62 33.4167L160.787 33.6164L162.894 31.8523L162.727 31.6527Z" fill="white"/>
<path d="M163.606 32.7487L161.468 34.4745L161.631 34.6771L163.77 32.9513L163.606 32.7487Z" fill="white"/>
<path d="M164.482 33.8433L162.314 35.5317L162.474 35.7371L164.642 34.0487L164.482 33.8433Z" fill="white"/>
<path d="M165.334 34.9518L163.137 36.6023L163.294 36.8104L165.491 35.16L165.334 34.9518Z" fill="white"/>
<path d="M166.199 36.0973L163.975 37.7106L164.127 37.9214L166.352 36.3081L166.199 36.0973Z" fill="white"/>
<path d="M167.015 37.242L164.762 38.8146L164.911 39.0281L167.164 37.4555L167.015 37.242Z" fill="white"/>
<path d="M167.809 38.3911L165.53 39.9255L165.675 40.1414L167.955 38.6071L167.809 38.3911Z" fill="white"/>
<path d="M168.583 39.5727L166.276 41.0669L166.418 41.2854L168.724 39.7911L168.583 39.5727Z" fill="white"/>
<path d="M169.351 40.775L167.019 42.2294L167.157 42.4503L169.488 40.9959L169.351 40.775Z" fill="white"/>
<path d="M170.099 41.9869L167.741 43.3983L167.874 43.6217L170.232 42.2102L170.099 41.9869Z" fill="white"/>
<path d="M170.801 43.1991L168.419 44.5698L168.549 44.7955L170.931 43.4247L170.801 43.1991Z" fill="white"/>
<path d="M171.493 44.399L169.087 45.7269L169.213 45.9548L171.619 44.6269L171.493 44.399Z" fill="white"/>
<path d="M172.176 45.6508L169.748 46.9385L169.87 47.1684L172.298 45.8807L172.176 45.6508Z" fill="white"/>
<path d="M172.83 46.8874L170.38 48.1328L170.498 48.3648L172.948 47.1195L172.83 46.8874Z" fill="white"/>
<path d="M173.449 48.1723L170.978 49.3745L171.092 49.6086L173.563 48.4064L173.449 48.1723Z" fill="white"/>
<path d="M174.056 49.426L171.564 50.5847L171.674 50.8208L174.166 49.662L174.056 49.426Z" fill="white"/>
<path d="M174.655 50.7174L172.144 51.8336L172.249 52.0714L174.76 50.9553L174.655 50.7174Z" fill="white"/>
<path d="M175.214 52.0103L172.683 53.0803L172.784 53.3201L175.315 52.2501L175.214 52.0103Z" fill="white"/>
<path d="M175.745 53.3075L173.196 54.3351L173.294 54.5766L175.842 53.549L175.745 53.3075Z" fill="white"/>
<path d="M176.272 54.5977L173.705 55.5794L173.798 55.8226L176.365 54.8409L176.272 54.5977Z" fill="white"/>
<path d="M176.735 55.931L174.152 56.8673L174.241 57.1121L176.824 56.1757L176.735 55.931Z" fill="white"/>
<path d="M177.209 57.2533L174.61 58.144L174.694 58.3903L177.294 57.4996L177.209 57.2533Z" fill="white"/>
<path d="M177.689 58.6022L175.074 59.447L175.154 59.6947L177.769 58.8499L177.689 58.6022Z" fill="white"/>
<path d="M178.097 59.9318L175.468 60.7312L175.544 60.9803L178.173 60.1808L178.097 59.9318Z" fill="white"/>
<path d="M178.507 61.2775L175.865 62.0313L175.936 62.2817L178.579 61.5279L178.507 61.2775Z" fill="white"/>
<path d="M178.856 62.6362L176.201 63.3441L176.268 63.5957L178.923 62.8878L178.856 62.6362Z" fill="white"/>
<path d="M179.229 64.0217L176.562 64.6837L176.625 64.9364L179.292 64.2744L179.229 64.0217Z" fill="white"/>
<path d="M179.531 65.3762L176.853 65.9901L176.911 66.2438L179.589 65.63L179.531 65.3762Z" fill="white"/>
<path d="M179.861 66.7472L177.173 67.3155L177.227 67.5702L179.915 67.0019L179.861 66.7472Z" fill="white"/>
<path d="M180.14 68.1364L177.442 68.6568L177.491 68.9124L180.19 68.392L180.14 68.1364Z" fill="white"/>
<path d="M180.409 69.5186L177.702 69.9934L177.747 70.2498L180.454 69.775L180.409 69.5186Z" fill="white"/>
<path d="M180.63 70.9082L177.916 71.3344L177.956 71.5915L180.671 71.1654L180.63 70.9082Z" fill="white"/>
<path d="M180.838 72.3256L178.116 72.7058L178.152 72.9636L180.874 72.5834L180.838 72.3256Z" fill="white"/>
<path d="M181.01 73.7083L178.282 74.0402L178.314 74.2986L181.041 73.9668L181.01 73.7083Z" fill="white"/>
<path d="M181.193 75.1102L178.46 75.3943L178.487 75.6532L181.22 75.3692L181.193 75.1102Z" fill="white"/>
<path d="M181.311 76.4978L178.573 76.7336L178.596 76.9929L181.333 76.7572L181.311 76.4978Z" fill="white"/>
<path d="M181.433 77.9107L178.691 78.0978L178.709 78.3576L181.45 78.1705L181.433 77.9107Z" fill="white"/>
<path d="M181.519 79.321L178.774 79.4625L178.788 79.7224L181.532 79.5809L181.519 79.321Z" fill="white"/>
<path d="M181.584 80.7355L178.837 80.8289L178.846 81.089L181.593 80.9957L181.584 80.7355Z" fill="white"/>
<path d="M181.602 82.1434L178.854 82.1885L178.859 82.4488L181.606 82.4037L181.602 82.1434Z" fill="white"/>
<path d="M181.35 83.8199L178.891 83.8169L178.892 83.5276L181.64 83.531C181.61 83.7046 181.495 83.8201 181.35 83.8199Z" fill="white"/>
<path d="M170.272 82.4174L170.273 81.9257L171.864 81.9276C172.038 81.9278 172.24 81.9281 172.471 81.9573C172.471 81.9573 172.414 81.9283 172.356 81.8704C172.298 81.8125 172.182 81.6966 172.009 81.5518L172.328 81.2629L172.992 81.9869L172.991 82.4497L170.272 82.4463L170.272 82.4174Z" fill="white"/>
<path d="M173.048 83.7224C173.048 83.9248 172.99 84.0983 172.874 84.2428C172.758 84.3584 172.585 84.4449 172.382 84.4447C172.267 84.4445 172.151 84.4155 172.035 84.3575C171.92 84.2995 171.833 84.1837 171.746 84.0679C171.63 84.2413 171.515 84.3279 171.399 84.4145C171.283 84.4722 171.138 84.501 171.023 84.5008C170.791 84.5006 170.618 84.4425 170.473 84.2977C170.329 84.1529 170.271 83.9793 170.272 83.7478C170.272 83.5164 170.33 83.314 170.475 83.1985C170.591 83.054 170.793 82.9964 171.025 82.9967C171.169 82.9969 171.314 83.026 171.429 83.084C171.545 83.142 171.661 83.2578 171.747 83.4026C171.863 83.287 171.95 83.1714 172.066 83.1137C172.181 83.056 172.297 83.0272 172.413 83.0274C172.615 83.0276 172.789 83.0857 172.904 83.2304C172.962 83.3462 173.049 83.5199 173.048 83.7224ZM170.995 83.4595C170.879 83.4593 170.793 83.4882 170.735 83.517C170.677 83.5748 170.648 83.6326 170.648 83.7194C170.648 83.8062 170.676 83.893 170.734 83.922C170.792 83.9799 170.879 83.98 170.994 83.9802C171.081 83.9803 171.139 83.9514 171.226 83.9226C171.284 83.8937 171.371 83.8071 171.458 83.7204L171.486 83.6915C171.429 83.6047 171.371 83.5467 171.284 83.5177C171.197 83.4887 171.111 83.4596 170.995 83.4595ZM172.643 83.7219C172.644 83.664 172.615 83.6061 172.557 83.5482C172.499 83.5192 172.441 83.4902 172.326 83.4901C172.239 83.4899 172.181 83.5188 172.123 83.5477C172.065 83.5765 172.007 83.6343 171.92 83.721C171.978 83.8078 172.036 83.8657 172.123 83.8948C172.18 83.9238 172.267 83.9528 172.354 83.9529C172.527 83.9531 172.643 83.8665 172.643 83.7219Z" fill="white"/>
<path d="M171.627 86.2372C171.136 86.2366 170.789 86.1783 170.557 86.0623C170.326 85.9463 170.239 85.7437 170.24 85.4834C170.24 85.2231 170.356 85.0207 170.588 84.9053C170.819 84.7899 171.166 84.7325 171.658 84.7331C172.15 84.7337 172.497 84.792 172.728 84.9079C172.959 85.0239 173.075 85.2266 173.075 85.4869C173.074 85.7472 172.958 85.9496 172.756 86.065C172.495 86.1804 172.119 86.2378 171.627 86.2372ZM171.629 85.2537C171.252 85.2532 170.992 85.2818 170.847 85.3106C170.703 85.3393 170.645 85.3971 170.645 85.4839C170.645 85.5417 170.674 85.5996 170.731 85.6286C170.789 85.6576 170.876 85.6867 171.021 85.7158C171.165 85.7449 171.368 85.7451 171.628 85.7454C172.004 85.7459 172.264 85.7173 172.409 85.6885C172.554 85.6598 172.612 85.602 172.612 85.4863C172.612 85.3995 172.554 85.3416 172.409 85.3125C172.265 85.2834 172.005 85.2542 171.629 85.2537Z" fill="white"/>
<path d="M169.015 70.4116L168.928 69.9198L170.52 69.6325C170.693 69.6038 170.896 69.5751 171.127 69.5465C171.127 69.5465 171.069 69.5175 171.012 69.4596C170.954 69.4016 170.809 69.3147 170.607 69.1987L170.868 68.8519L171.648 69.4603L171.734 69.8943L169.015 70.4116Z" fill="white"/>
<path d="M169.13 71.1351L171.501 71.4852L171.329 70.5593L171.763 70.4731L172.021 71.9197L171.674 71.9771L169.245 71.6559L169.13 71.1351Z" fill="white"/>
<path d="M171.006 73.9144C170.514 74.0006 170.167 74.0001 169.907 73.913C169.676 73.826 169.531 73.6522 169.474 73.3918C169.416 73.1314 169.503 72.9291 169.706 72.7847C169.909 72.6403 170.256 72.525 170.719 72.4388C171.211 72.3527 171.558 72.3531 171.818 72.4402C172.049 72.5273 172.194 72.701 172.251 72.9325C172.309 73.1929 172.222 73.3952 172.019 73.5396C171.874 73.713 171.527 73.8283 171.006 73.9144ZM170.863 72.9597C170.487 73.0171 170.226 73.0746 170.111 73.1323C169.995 73.19 169.937 73.2478 169.937 73.3635C169.937 73.4213 169.994 73.4793 170.052 73.4793C170.11 73.5083 170.226 73.5085 170.341 73.5086C170.486 73.5088 170.66 73.4801 170.949 73.4226C171.325 73.3652 171.557 73.3076 171.701 73.25C171.817 73.1923 171.875 73.1056 171.875 73.0188C171.846 72.932 171.789 72.874 171.644 72.8739C171.47 72.8736 171.21 72.9023 170.863 72.9597Z" fill="white"/>
<path d="M165.703 58.779L165.53 58.3159L167.034 57.7682C167.208 57.7106 167.382 57.6529 167.613 57.5954C167.584 57.5953 167.555 57.5664 167.469 57.5373C167.382 57.5083 167.237 57.4503 167.035 57.3632L167.238 56.9875L168.105 57.4513L168.249 57.8854L165.703 58.779Z" fill="white"/>
<path d="M166.975 58.8962C167.496 58.6944 167.901 58.637 168.219 58.7242C168.509 58.8113 168.74 59.0141 168.855 59.3324C168.884 59.3903 168.884 59.4482 168.913 59.5061C168.913 59.5639 168.942 59.5929 168.941 59.6218L168.536 59.7659C168.536 59.6792 168.508 59.5923 168.479 59.5055C168.421 59.3608 168.363 59.274 168.277 59.216C168.19 59.1581 168.074 59.129 167.93 59.1288C167.785 59.1286 167.611 59.1573 167.409 59.2149L167.409 59.2439C167.525 59.244 167.611 59.273 167.698 59.331C167.785 59.389 167.843 59.4469 167.871 59.5626C167.929 59.7363 167.9 59.8808 167.813 60.0543C167.697 60.1988 167.523 60.3143 167.263 60.4297C167.002 60.5161 166.742 60.5447 166.54 60.4866C166.337 60.4285 166.193 60.2837 166.106 60.0522C166.02 59.8207 166.049 59.6182 166.194 59.4159C166.339 59.1847 166.599 59.0404 166.975 58.8962ZM166.511 59.8502C166.54 59.9081 166.598 59.966 166.685 59.9661C166.772 59.9952 166.916 59.9664 167.061 59.9087C167.206 59.8511 167.292 59.7933 167.35 59.7355C167.408 59.6778 167.437 59.591 167.408 59.5331C167.38 59.4752 167.322 59.4173 167.235 59.4172C167.148 59.3882 167.062 59.417 166.946 59.4458C166.772 59.5034 166.656 59.5611 166.57 59.6478C166.512 59.7056 166.483 59.7923 166.511 59.8502Z" fill="white"/>
<path d="M168.273 61.906C167.81 62.079 167.463 62.1364 167.203 62.1072C166.942 62.0779 166.798 61.9331 166.682 61.6726C166.596 61.4122 166.625 61.2098 166.799 61.0364C166.973 60.8631 167.291 60.6899 167.754 60.5169C168.217 60.3439 168.564 60.2865 168.825 60.3158C169.085 60.345 169.258 60.4899 169.345 60.7503C169.431 61.0107 169.402 61.2132 169.228 61.3865C169.083 61.5599 168.765 61.7331 168.273 61.906ZM167.927 60.98C167.58 61.1242 167.319 61.2106 167.204 61.2972C167.088 61.3839 167.059 61.4417 167.088 61.5285C167.116 61.5864 167.145 61.6154 167.232 61.6444C167.29 61.6445 167.406 61.6446 167.521 61.6158C167.637 61.587 167.84 61.5294 168.1 61.443C168.447 61.3277 168.679 61.2123 168.795 61.1257C168.91 61.039 168.968 60.9523 168.911 60.8655C168.882 60.7787 168.795 60.7496 168.651 60.7494C168.535 60.7782 168.303 60.8358 167.927 60.98Z" fill="white"/>
<path d="M160.393 47.8962L160.134 47.462L161.523 46.6538C161.668 46.5672 161.842 46.4806 162.044 46.3652C162.015 46.3651 161.986 46.3651 161.9 46.3361C161.813 46.307 161.668 46.2779 161.437 46.2198L161.553 45.815L162.507 46.1054L162.738 46.5107L160.393 47.8962Z" fill="white"/>
<path d="M162.563 48.217C162.678 48.3907 162.678 48.5642 162.62 48.7377C162.562 48.9112 162.417 49.0556 162.215 49.2C161.954 49.3443 161.723 49.4019 161.491 49.3437C161.26 49.2856 161.087 49.1408 160.971 48.9092C160.856 48.7066 160.798 48.504 160.798 48.3305L161.204 48.0996C161.203 48.1864 161.203 48.2731 161.232 48.3599C161.261 48.4757 161.29 48.5625 161.319 48.6204C161.463 48.852 161.665 48.8811 161.926 48.7368C162.186 48.5925 162.244 48.419 162.1 48.1875C162.042 48.1006 161.985 48.0138 161.898 47.9269L161.927 47.7244L163.172 47.1185L163.749 48.1316L163.344 48.3626L162.968 47.7257L162.448 47.9854C162.447 48.0722 162.505 48.1301 162.563 48.217Z" fill="white"/>
<path d="M163.485 50.5322C163.051 50.792 162.704 50.9073 162.473 50.907C162.212 50.9067 162.039 50.7908 161.894 50.5881C161.75 50.3565 161.75 50.1251 161.895 49.9228C162.04 49.7205 162.301 49.4894 162.735 49.2296C163.169 48.9698 163.516 48.8546 163.748 48.8548C164.008 48.8552 164.182 48.9711 164.326 49.1737C164.47 49.4053 164.47 49.6078 164.325 49.839C164.209 50.0414 163.92 50.2724 163.485 50.5322ZM162.995 49.6638C162.676 49.8659 162.445 50.0103 162.358 50.0969C162.271 50.1836 162.242 50.2703 162.271 50.3572C162.3 50.415 162.357 50.444 162.415 50.4441C162.473 50.4442 162.589 50.4154 162.705 50.3577C162.82 50.3 162.994 50.2134 163.226 50.0691C163.544 49.867 163.776 49.7516 163.863 49.636C163.978 49.5493 163.978 49.4626 163.95 49.3758C163.892 49.2889 163.805 49.2888 163.689 49.3176C163.545 49.3753 163.313 49.4907 162.995 49.6638Z" fill="white"/>
<path d="M153.29 38.1102L152.972 37.7338L154.217 36.694C154.362 36.5784 154.506 36.4629 154.709 36.3185C154.68 36.3185 154.651 36.3185 154.564 36.3184C154.478 36.3183 154.333 36.3181 154.102 36.2889L154.16 35.884L155.143 36.0009L155.432 36.3484L153.29 38.1102Z" fill="white"/>
<path d="M155.11 39.3851L154.937 39.1824L154.503 39.5579L154.185 39.1814L154.619 38.8059L154.042 38.111L154.36 37.8511L156.241 37.3617L156.587 37.767L155.255 38.8935L155.429 39.0962L155.11 39.3851ZM154.938 38.5171L155.372 38.1416L155.575 37.9972L155.777 37.8528C155.633 37.9105 155.517 37.9393 155.401 37.9681L154.649 38.1696L154.938 38.5171Z" fill="white"/>
<path d="M156.787 40.1681C156.411 40.4858 156.092 40.659 155.861 40.7166C155.629 40.7741 155.398 40.6871 155.225 40.4844C155.051 40.2817 155.023 40.0502 155.11 39.8479C155.197 39.6455 155.428 39.3565 155.834 39.0388C156.21 38.7211 156.529 38.548 156.789 38.4904C157.049 38.4329 157.252 38.5199 157.425 38.7226C157.598 38.9253 157.627 39.1278 157.54 39.3591C157.424 39.5615 157.192 39.8504 156.787 40.1681ZM156.152 39.4153C155.862 39.6752 155.659 39.8485 155.601 39.9642C155.514 40.0798 155.514 40.1665 155.572 40.2245C155.601 40.2824 155.659 40.2824 155.745 40.2825C155.803 40.2826 155.89 40.2249 156.006 40.1672C156.122 40.0805 156.267 39.965 156.469 39.7917C156.759 39.5606 156.933 39.3584 157.019 39.2428C157.106 39.1272 157.107 39.0404 157.049 38.9536C156.991 38.8956 156.904 38.8666 156.76 38.9532C156.673 39.0109 156.441 39.1553 156.152 39.4153Z" fill="white"/>
<path d="M144.593 29.7109L144.218 29.3922L145.261 28.1497C145.376 28.0052 145.521 27.8608 145.666 27.7163C145.637 27.7163 145.608 27.7162 145.521 27.7451C145.435 27.745 145.29 27.7737 145.058 27.8023L145.03 27.3684L146.014 27.3118L146.36 27.6015L144.593 29.7109Z" fill="white"/>
<path d="M147.485 29.3376C147.369 29.4821 147.254 29.5398 147.109 29.5975C146.964 29.6262 146.82 29.626 146.675 29.5391C146.791 29.6838 146.848 29.7996 146.848 29.9442C146.848 30.0889 146.79 30.2334 146.674 30.3779C146.5 30.5802 146.327 30.6667 146.095 30.6954C145.893 30.6951 145.661 30.637 145.459 30.4632C145.286 30.3183 145.141 30.1446 145.084 29.971L145.373 29.6242C145.402 29.7111 145.46 29.7979 145.489 29.8847C145.546 29.9716 145.604 30.0295 145.662 30.0874C145.778 30.1743 145.864 30.2323 145.98 30.2324C146.067 30.2325 146.183 30.1748 146.27 30.0592C146.443 29.857 146.415 29.6255 146.155 29.4227L146.039 29.3358L146.271 29.0468L146.386 29.1338C146.502 29.2207 146.618 29.2787 146.704 29.2788C146.82 29.2789 146.907 29.2212 146.994 29.1056C147.052 29.0189 147.11 28.9322 147.081 28.8743C147.081 28.7875 147.052 28.7296 146.965 28.6717C146.85 28.5847 146.705 28.5267 146.532 28.5554L146.561 28.1505C146.822 28.1219 147.053 28.209 147.284 28.3828C147.457 28.5276 147.573 28.7013 147.573 28.8749C147.659 29.0196 147.601 29.1931 147.485 29.3376Z" fill="white"/>
<path d="M148.41 31.1041C148.091 31.4797 147.802 31.7108 147.57 31.7973C147.339 31.8838 147.107 31.8545 146.905 31.6807C146.703 31.5069 146.616 31.3043 146.674 31.073C146.732 30.8417 146.906 30.5237 147.225 30.1481C147.544 29.7724 147.833 29.5414 148.065 29.4549C148.296 29.3684 148.528 29.3976 148.701 29.5714C148.903 29.7452 148.99 29.9478 148.932 30.1791C148.931 30.4105 148.728 30.7284 148.41 31.1041ZM147.658 30.4668C147.398 30.7557 147.253 30.958 147.195 31.1026C147.137 31.2182 147.137 31.305 147.223 31.3629C147.281 31.3919 147.339 31.4209 147.397 31.3921C147.455 31.3632 147.542 31.3055 147.629 31.2188C147.715 31.1321 147.86 30.9877 148.034 30.7854C148.266 30.4965 148.44 30.2942 148.498 30.1496C148.556 30.034 148.556 29.9183 148.498 29.8604C148.44 29.8025 148.325 29.8023 148.209 29.8889C148.064 30.0045 147.89 30.1778 147.658 30.4668Z" fill="white"/>
<path d="M134.593 22.9296L134.16 22.6687L134.971 21.2813C135.058 21.1368 135.174 20.9634 135.29 20.761C135.29 20.761 135.232 20.7899 135.145 20.8187C135.059 20.8475 134.914 20.8763 134.682 20.9628L134.596 20.5577L135.551 20.3275L135.956 20.5594L134.593 22.9296Z" fill="white"/>
<path d="M136.328 23.9439L135.056 23.2192L135.259 22.9013L136.011 22.5551C136.214 22.4686 136.359 22.382 136.474 22.3243C136.561 22.2665 136.648 22.2088 136.706 22.151C136.764 22.0932 136.822 22.0065 136.88 21.9488C136.938 21.862 136.938 21.7753 136.938 21.7174C136.938 21.6596 136.88 21.6016 136.822 21.5437C136.765 21.5147 136.707 21.4857 136.649 21.4857C136.591 21.4856 136.475 21.5144 136.36 21.5432L136.273 21.1381C136.447 21.0804 136.621 21.0517 136.736 21.0519C136.852 21.052 136.968 21.11 137.083 21.168C137.286 21.284 137.401 21.4287 137.43 21.6023C137.459 21.7759 137.429 21.9494 137.313 22.1518C137.255 22.2385 137.198 22.3252 137.14 22.383C137.082 22.4407 136.995 22.5274 136.908 22.5852C136.821 22.6429 136.734 22.7006 136.618 22.7584C136.503 22.8161 136.242 22.9314 135.808 23.1045L136.589 23.5393L136.328 23.9439Z" fill="white"/>
<path d="M138.584 23.6575C138.323 24.0911 138.092 24.3801 137.889 24.4955C137.686 24.6399 137.455 24.6396 137.224 24.4947C136.992 24.3498 136.877 24.1761 136.906 23.9158C136.907 23.6554 137.052 23.3374 137.284 22.9038C137.544 22.4703 137.776 22.2102 137.979 22.0659C138.181 21.9215 138.413 21.9218 138.644 22.0667C138.875 22.2116 138.991 22.3853 138.962 22.6456C138.961 22.877 138.816 23.2239 138.584 23.6575ZM137.717 23.1647C137.514 23.4826 137.398 23.7139 137.369 23.8585C137.34 24.0031 137.34 24.0899 137.427 24.1189C137.484 24.1479 137.542 24.148 137.6 24.1191C137.658 24.0903 137.716 24.0036 137.803 23.9169C137.89 23.8013 137.977 23.6278 138.122 23.3966C138.325 23.0787 138.412 22.8474 138.47 22.7028C138.499 22.5582 138.499 22.4715 138.412 22.4424C138.326 22.3845 138.239 22.4133 138.152 22.5289C138.065 22.6156 137.92 22.8468 137.717 23.1647Z" fill="white"/>
<path d="M123.55 17.9986L123.087 17.8245L123.639 16.3211C123.697 16.1476 123.784 15.9741 123.871 15.7718C123.871 15.7718 123.813 15.8006 123.755 15.8584C123.668 15.8872 123.552 15.9738 123.321 16.0603L123.148 15.6841L124.074 15.3092L124.508 15.4544L123.55 17.9986Z" fill="white"/>
<path d="M125.198 18.608L124.735 18.4339L125.287 16.9304C125.345 16.757 125.432 16.5835 125.519 16.3811C125.519 16.3811 125.461 16.41 125.403 16.4678C125.316 16.4966 125.2 16.5832 124.969 16.6697L124.796 16.2935L125.722 15.9186L126.155 16.0637L125.198 18.608Z" fill="white"/>
<path d="M127.6 18.0324C127.425 18.495 127.251 18.813 127.078 18.9863C126.904 19.1596 126.672 19.1883 126.412 19.1012C126.152 19.0141 126.037 18.8404 125.979 18.58C125.95 18.3196 126.009 17.9726 126.183 17.51C126.357 17.0474 126.531 16.7294 126.734 16.5561C126.936 16.3828 127.139 16.3541 127.37 16.4412C127.63 16.5283 127.746 16.702 127.803 16.9335C127.832 17.1938 127.774 17.5698 127.6 18.0324ZM126.674 17.6841C126.529 18.0311 126.471 18.2913 126.442 18.4359C126.442 18.5806 126.471 18.6674 126.557 18.6964C126.615 18.7254 126.673 18.6965 126.731 18.6677C126.789 18.6388 126.847 18.5521 126.905 18.4365C126.963 18.3209 127.05 18.1185 127.137 17.8872C127.253 17.5402 127.34 17.28 127.34 17.1354C127.34 16.9908 127.312 16.9039 127.225 16.8749C127.138 16.8459 127.051 16.8747 126.964 16.9903C126.906 17.1059 126.79 17.3372 126.674 17.6841Z" fill="white"/>
<path d="M111.809 15.0624L111.317 14.9751L111.608 13.3845C111.638 13.211 111.696 13.0086 111.754 12.8062C111.754 12.8062 111.696 12.835 111.638 12.8928C111.58 12.9506 111.435 13.0372 111.262 13.1816L111.031 12.8342L111.87 12.2856L112.304 12.373L111.809 15.0624Z" fill="white"/>
<path d="M114.066 14.0818C113.979 14.5734 113.863 14.9204 113.689 15.0937C113.544 15.296 113.313 15.3536 113.052 15.3244C112.792 15.2662 112.619 15.1214 112.561 14.8899C112.475 14.6584 112.504 14.2824 112.591 13.7907C112.679 13.2991 112.795 12.9521 112.969 12.7499C113.114 12.5476 113.345 12.4611 113.576 12.5192C113.837 12.5774 114.01 12.6933 114.068 12.9537C114.154 13.2141 114.154 13.5902 114.066 14.0818ZM113.083 13.907C113.025 14.283 112.995 14.5433 112.995 14.6879C112.995 14.8326 113.053 14.8905 113.14 14.9195C113.197 14.9196 113.255 14.9197 113.284 14.8618C113.342 14.8041 113.371 14.7173 113.4 14.6017C113.429 14.486 113.488 14.2836 113.517 14.0233C113.575 13.6473 113.604 13.387 113.605 13.2424C113.605 13.0978 113.547 13.0109 113.46 13.0108C113.373 12.9818 113.287 13.0395 113.229 13.1841C113.228 13.2709 113.17 13.5311 113.083 13.907Z" fill="white"/>
<path d="M115.802 14.402C115.714 14.8936 115.598 15.2406 115.424 15.4139C115.279 15.6162 115.048 15.6738 114.788 15.6446C114.527 15.5864 114.354 15.4415 114.297 15.2101C114.21 14.9785 114.239 14.6026 114.327 14.1109C114.414 13.6193 114.53 13.2723 114.704 13.0701C114.849 12.8678 115.081 12.7813 115.312 12.8394C115.572 12.8976 115.746 13.0135 115.803 13.2739C115.918 13.5344 115.889 13.8814 115.802 14.402ZM114.847 14.2273C114.789 14.6032 114.76 14.8635 114.76 15.0082C114.759 15.1528 114.817 15.2107 114.904 15.2397C114.962 15.2398 115.02 15.2399 115.049 15.1821C115.107 15.1243 115.136 15.0375 115.165 14.9219C115.194 14.8062 115.252 14.6038 115.281 14.3435C115.339 13.9675 115.369 13.7072 115.369 13.5626C115.369 13.418 115.311 13.3311 115.224 13.331C115.138 13.302 115.051 13.3597 114.993 13.5043C114.964 13.591 114.906 13.8513 114.847 14.2273Z" fill="white"/>
<path d="M100.528 15.1932C100.525 17.5072 99.7423 18.6344 98.2092 18.6325C97.9489 18.6321 97.7464 18.603 97.5729 18.5738L97.5741 17.6482C97.7476 17.7063 97.9211 17.7354 98.0946 17.7356C98.5574 17.7362 98.9047 17.592 99.1365 17.2741C99.3683 16.9562 99.5136 16.4646 99.5433 15.7705L99.5144 15.7704C99.4274 15.9728 99.3115 16.1462 99.1378 16.2617C98.9641 16.3772 98.7904 16.4348 98.559 16.4345C98.1541 16.434 97.8361 16.2601 97.6051 15.9416C97.3741 15.5942 97.259 15.1602 97.2597 14.5817C97.2605 13.9453 97.4057 13.4248 97.6954 13.0781C97.9851 12.7024 98.3903 12.5293 98.882 12.53C99.4027 12.5306 99.8363 12.7625 100.096 13.2257C100.385 13.6599 100.529 14.3254 100.528 15.1932ZM98.8809 13.4556C98.7074 13.4554 98.5915 13.542 98.4756 13.7154C98.3886 13.8889 98.3304 14.178 98.33 14.5541C98.3296 14.8723 98.3582 15.1037 98.4448 15.2774C98.5313 15.451 98.6469 15.5379 98.8205 15.5382C98.9651 15.5383 99.1099 15.4517 99.2258 15.2783C99.3417 15.1049 99.3998 14.9025 99.4001 14.6711C99.4005 14.324 99.343 14.0347 99.2565 13.8031C99.17 13.5716 99.0545 13.4558 98.8809 13.4556Z" fill="white"/>
<path d="M104.432 15.6029C104.43 16.6731 104.285 17.4539 104.024 17.9454C103.763 18.4368 103.358 18.6677 102.779 18.667C102.201 18.6663 101.796 18.4343 101.536 17.9423C101.277 17.4502 101.162 16.6691 101.163 15.5988C101.165 14.5286 101.31 13.7478 101.571 13.2564C101.832 12.7649 102.237 12.534 102.816 12.5348C103.394 12.5355 103.799 12.7674 104.059 13.2594C104.29 13.6936 104.433 14.5037 104.432 15.6029ZM102.262 15.6002C102.261 16.439 102.29 16.9887 102.376 17.278C102.434 17.5674 102.578 17.7122 102.78 17.7124C102.925 17.7126 103.012 17.6549 103.099 17.5103C103.186 17.3947 103.215 17.1634 103.273 16.8742C103.302 16.585 103.332 16.1511 103.333 15.5726C103.334 14.7627 103.305 14.1841 103.219 13.8948C103.133 13.6054 103.017 13.4317 102.815 13.4314C102.612 13.4312 102.467 13.5756 102.409 13.8648C102.293 14.2118 102.263 14.7614 102.262 15.6002Z" fill="white"/>
<path d="M87.4555 12.689C87.658 12.6604 87.8315 12.6895 87.9761 12.7764C88.1206 12.8634 88.2072 13.0371 88.2358 13.2396C88.2646 13.3553 88.2355 13.4999 88.2065 13.5867C88.1774 13.7023 88.0905 13.8179 87.9746 13.9335C88.1481 14.0205 88.2926 14.1074 88.3792 14.2232C88.4659 14.339 88.5236 14.4548 88.5523 14.5995C88.581 14.8309 88.5518 15.0044 88.4359 15.1779C88.32 15.3223 88.1463 15.4378 87.9438 15.4665C87.7124 15.4951 87.5099 15.466 87.3654 15.379C87.2209 15.2631 87.1054 15.1184 87.0768 14.8869C87.048 14.7423 87.0482 14.5976 87.1062 14.4531C87.1643 14.3085 87.2223 14.1929 87.367 14.0774C87.2225 13.9904 87.1069 13.9035 87.0492 13.8166C86.9625 13.7297 86.9337 13.614 86.905 13.4693C86.8763 13.2668 86.9054 13.0933 87.0213 12.9488C87.0793 12.8332 87.253 12.7466 87.4555 12.689ZM87.5129 13.0941C87.455 13.094 87.3971 13.1518 87.3681 13.2096C87.3391 13.2674 87.339 13.3542 87.3389 13.441C87.3388 13.5277 87.3676 13.5856 87.4254 13.6435C87.4543 13.7014 87.541 13.7594 87.6277 13.8173C87.6856 13.7306 87.7436 13.6729 87.7726 13.5861C87.8016 13.5283 87.8017 13.4415 87.7729 13.3547C87.7442 13.1522 87.6575 13.0653 87.5129 13.0941ZM87.5397 14.7718C87.5685 14.8875 87.5973 14.9743 87.6551 15.0323C87.7129 15.0902 87.7707 15.1192 87.8575 15.0904C87.9443 15.0615 88.0022 15.0327 88.0312 14.9459C88.0602 14.8881 88.0604 14.7724 88.0605 14.6857C88.0606 14.5989 88.0028 14.541 87.974 14.4831C87.9162 14.4251 87.8295 14.3672 87.7139 14.2803L87.685 14.2513C87.627 14.338 87.5691 14.3958 87.5401 14.4825C87.511 14.5693 87.5109 14.656 87.5397 14.7718Z" fill="white"/>
<path d="M90.1735 13.6474C90.2597 14.1392 90.2592 14.4863 90.1721 14.7466C90.0851 14.9779 89.9114 15.1223 89.651 15.1798C89.3905 15.2373 89.1882 15.1503 89.0438 14.9477C88.8994 14.745 88.7841 14.3977 88.6979 13.9348C88.6118 13.443 88.6122 13.0959 88.6993 12.8357C88.7864 12.6044 88.9601 12.4599 89.1916 12.4024C89.452 12.3448 89.6543 12.4319 89.7987 12.6345C89.9721 12.8083 90.0873 13.1556 90.1735 13.6474ZM89.1898 13.8197C89.2472 14.1958 89.3047 14.4562 89.3624 14.572C89.4202 14.6878 89.4779 14.7457 89.5936 14.7459C89.6515 14.7459 89.7094 14.6882 89.7095 14.6303C89.7385 14.5725 89.7386 14.4568 89.7388 14.3411C89.7389 14.1964 89.7102 14.0229 89.6527 13.7335C89.5954 13.3574 89.5378 13.1259 89.4801 12.9812C89.4224 12.8655 89.3357 12.8075 89.2489 12.8074C89.1621 12.8362 89.1042 12.894 89.104 13.0386C89.1038 13.1833 89.1324 13.4436 89.1898 13.8197Z" fill="white"/>
<path d="M75.762 18.8937L75.7071 16.4928L74.81 16.8099L74.6659 16.3758L76.0549 15.8858L76.1703 16.2041L76.2829 18.6919L75.762 18.8937Z" fill="white"/>
<path d="M78.1948 16.583C78.3678 17.046 78.4252 17.3932 78.3959 17.6535C78.3667 17.9138 78.2219 18.0582 77.9614 18.1736C77.701 18.2601 77.4985 18.2309 77.3252 18.0571C77.1518 17.8834 76.9787 17.565 76.8057 17.1019C76.6327 16.6389 76.5753 16.2917 76.6045 16.0314C76.6338 15.7711 76.7786 15.5978 77.0391 15.5113C77.2995 15.4249 77.502 15.454 77.6753 15.6278C77.8487 15.7726 78.0218 16.091 78.1948 16.583ZM77.2688 16.9C77.413 17.2473 77.4994 17.5078 77.5861 17.6236C77.6727 17.7394 77.7305 17.7684 77.8173 17.7396C77.8752 17.7107 77.9042 17.6818 77.9332 17.5951C77.9333 17.5372 77.9334 17.4215 77.9046 17.3058C77.8758 17.19 77.8182 16.9875 77.7318 16.727C77.6165 16.3798 77.5011 16.1482 77.4145 16.0324C77.3278 15.9166 77.2411 15.8587 77.1543 15.9164C77.0675 15.9452 77.0384 16.032 77.0383 16.1766C77.067 16.3213 77.1246 16.5527 77.2688 16.9Z" fill="white"/>
<path d="M64.4462 23.2762C64.1575 22.7841 64.0423 22.4079 64.0716 22.0898C64.1009 21.7716 64.2458 21.5404 64.5642 21.3672C64.6221 21.3384 64.6511 21.3095 64.709 21.2806C64.7669 21.2518 64.7958 21.2518 64.8247 21.2229L65.0268 21.5992C64.9399 21.628 64.8531 21.6568 64.7952 21.7146C64.6794 21.7723 64.5925 21.859 64.5346 21.9746C64.4766 22.0613 64.4765 22.177 64.5052 22.3217C64.5339 22.4664 64.5916 22.6111 64.6781 22.8137L64.7071 22.8137C64.7072 22.698 64.7073 22.6112 64.7364 22.5245C64.7654 22.4377 64.8522 22.38 64.9391 22.3222C65.0838 22.2356 65.2574 22.2359 65.4309 22.2939C65.6043 22.3809 65.7488 22.5257 65.8931 22.7573C66.0374 23.0178 66.095 23.2493 66.0658 23.4517C66.0366 23.6542 65.9207 23.8276 65.7181 23.943C65.5155 24.0585 65.284 24.0582 65.0817 23.9712C64.8504 23.8552 64.6482 23.6235 64.4462 23.2762ZM65.4871 23.5667C65.545 23.5379 65.5741 23.4511 65.5742 23.3644C65.5743 23.2776 65.5166 23.1618 65.43 22.9881C65.3723 22.8724 65.2856 22.7855 65.1989 22.7275C65.1122 22.6696 65.0544 22.6695 64.9675 22.7272C64.9096 22.7561 64.8806 22.8139 64.8805 22.9296C64.8804 23.0164 64.9092 23.1032 64.9669 23.219C65.0535 23.3637 65.1401 23.4795 65.2268 23.5375C65.3425 23.5955 65.4293 23.5956 65.4871 23.5667Z" fill="white"/>
<path d="M67.1677 21.4579C67.4275 21.8921 67.5428 22.2393 67.5425 22.4707C67.5422 22.7311 67.4263 22.9045 67.2236 23.0489C66.992 23.1932 66.7606 23.1929 66.5583 23.048C66.356 22.9032 66.1249 22.6425 65.8651 22.2083C65.6053 21.7741 65.4901 21.4269 65.4904 21.1955C65.4907 20.9351 65.6066 20.7617 65.8093 20.6173C66.0408 20.473 66.2433 20.4733 66.4745 20.6182C66.7058 20.7342 66.9369 21.0237 67.1677 21.4579ZM66.3283 21.9486C66.5304 22.267 66.6747 22.4986 66.7614 22.5855C66.848 22.6724 66.9348 22.7014 67.0216 22.6726C67.0795 22.6437 67.1085 22.5859 67.1086 22.5281C67.1086 22.4702 67.0798 22.3545 67.0221 22.2387C66.9644 22.1229 66.8779 21.9493 66.7335 21.7177C66.5314 21.3992 66.416 21.1677 66.3004 21.0808C66.2138 20.965 66.127 20.9649 66.0402 20.9937C65.9534 21.0514 65.9532 21.1382 65.982 21.2539C66.0108 21.3986 66.1262 21.6301 66.3283 21.9486Z" fill="white"/>
<path d="M54.5164 29.7154C54.6612 29.571 54.8348 29.5423 55.0372 29.5714C55.2107 29.6006 55.3841 29.7165 55.5574 29.9192C55.7596 30.1509 55.8461 30.3824 55.8169 30.5848C55.8167 30.8162 55.7007 31.0186 55.498 31.1919C55.3243 31.3363 55.1506 31.4228 54.977 31.4515L54.6593 31.0751C54.7461 31.0752 54.8329 31.0464 54.9197 31.0176C55.0065 30.9888 55.0934 30.931 55.1802 30.8733C55.3829 30.7 55.3832 30.4975 55.181 30.2658C55.0077 30.0342 54.8053 30.005 54.6026 30.1784C54.5157 30.2361 54.4578 30.3228 54.3998 30.4384L54.1973 30.4382L53.3887 29.338L54.2863 28.587L54.5752 28.9345L54.025 29.3966L54.3715 29.8599C54.4005 29.831 54.4584 29.7732 54.5164 29.7154Z" fill="white"/>
<path d="M56.6587 28.3875C56.9764 28.764 57.1495 29.0824 57.2071 29.3138C57.2647 29.5453 57.1776 29.7766 56.9749 29.9499C56.7722 30.1232 56.5697 30.1519 56.3384 30.0648C56.1071 29.9778 55.8471 29.7461 55.5294 29.3407C55.2117 28.9643 55.0385 28.6459 54.981 28.3855C54.9234 28.1251 55.0105 27.9227 55.2132 27.7494C55.4158 27.5761 55.6184 27.5474 55.8497 27.6345C56.052 27.7504 56.312 27.9822 56.6587 28.3875ZM55.8769 29.0229C56.1368 29.3125 56.3102 29.5152 56.3969 29.5732C56.5125 29.6601 56.5992 29.6602 56.6572 29.6024C56.715 29.5736 56.7151 29.5157 56.7152 29.4289C56.7153 29.3711 56.6575 29.2842 56.5998 29.1685C56.5132 29.0527 56.3977 28.9079 56.2244 28.7052C55.9933 28.4156 55.7911 28.2418 55.6755 28.1549C55.5599 28.068 55.4731 28.0679 55.3862 28.1256C55.3283 28.1834 55.2993 28.2702 55.3859 28.4149C55.5014 28.5307 55.6458 28.7334 55.8769 29.0229Z" fill="white"/>
<path d="M47.2438 38.7015L47.07 38.9038L47.5034 39.2803L47.1848 39.656L46.7513 39.2794L46.172 39.9729L45.8541 39.7122L45.0464 37.9467L45.394 37.5422L46.7232 38.6719L46.897 38.4697L47.2438 38.7015ZM46.4335 39.0187L46.0001 38.6421L45.7978 38.4683L45.6245 38.2945C45.7111 38.4103 45.7688 38.5261 45.8265 38.6419L46.1438 39.3365L46.4335 39.0187Z" fill="white"/>
<path d="M47.738 36.9087C48.1136 37.2273 48.3447 37.5169 48.4311 37.7484C48.5176 37.9799 48.4884 38.2113 48.3146 38.4136C48.1408 38.6158 47.9382 38.7023 47.7069 38.6442C47.4756 38.5861 47.1576 38.4121 46.782 38.0935C46.4063 37.7748 46.1753 37.4853 46.0888 37.2538C46.0023 37.0223 46.0315 36.7909 46.2053 36.6175C46.3791 36.4153 46.5817 36.3288 46.813 36.3869C47.0444 36.3872 47.3623 36.5901 47.738 36.9087ZM47.1007 37.66C47.3896 37.9207 47.5919 38.0656 47.7365 38.1236C47.8521 38.1816 47.9389 38.1817 47.9968 38.095C48.0258 38.0372 48.0548 37.9793 48.026 37.9215C47.9971 37.8636 47.9394 37.7767 47.8527 37.6898C47.766 37.603 47.6216 37.4581 47.4193 37.2843C47.1303 37.0526 46.9281 36.8788 46.7835 36.8207C46.6679 36.7627 46.5522 36.7626 46.4943 36.8204C46.4363 36.8782 46.4362 36.9939 46.5228 37.1097C46.6095 37.2255 46.8117 37.4282 47.1007 37.66Z" fill="white"/>
<path d="M38.8448 48.0642C38.9894 48.1511 39.1049 48.267 39.1626 48.3828C39.2203 48.5275 39.2201 48.6721 39.191 48.8167C39.3069 48.6722 39.4227 48.6145 39.5673 48.5857C39.712 48.557 39.8566 48.5861 40.03 48.6731C40.2613 48.7891 40.3768 48.9628 40.4344 49.1653C40.492 49.3679 40.4339 49.5992 40.3179 49.8305C40.2019 50.0328 40.0571 50.2062 39.9123 50.2928L39.5077 50.0609C39.5945 50.0031 39.6814 49.9454 39.7393 49.8876C39.8261 49.8299 39.8841 49.7432 39.9131 49.6564C40.0001 49.5408 40.0002 49.4251 40.0003 49.3094C39.9715 49.2226 39.9138 49.1358 39.7693 49.0488C39.538 48.9039 39.3354 48.9904 39.1615 49.2795L39.0746 49.424L38.7566 49.2211L38.8436 49.1055C38.9305 48.9899 38.9306 48.8742 38.9308 48.7585C38.902 48.6428 38.8442 48.5559 38.7286 48.4979C38.6419 48.44 38.5552 48.4109 38.4683 48.4398C38.3815 48.4686 38.3236 48.4974 38.2946 48.5842C38.2366 48.6998 38.2075 48.8444 38.2362 49.018L37.8312 49.0464C37.7737 48.786 37.8029 48.5546 37.9479 48.2945C38.0638 48.0921 38.2086 47.9766 38.3822 47.919C38.4979 47.9481 38.6714 47.9772 38.8448 48.0642Z" fill="white"/>
<path d="M40.4367 46.8503C40.8703 47.1112 41.1592 47.343 41.2747 47.5456C41.4191 47.7482 41.4188 47.9797 41.2739 48.2109C41.129 48.4421 40.9553 48.5576 40.695 48.5284C40.4346 48.528 40.1166 48.383 39.683 48.1511C39.2495 47.8902 38.9894 47.6585 38.845 47.4558C38.7007 47.2532 38.701 47.0217 38.8459 46.7905C38.9908 46.5593 39.1645 46.4438 39.4248 46.4731C39.6562 46.4733 40.0031 46.5895 40.4367 46.8503ZM39.9439 47.6886C40.2619 47.8914 40.4931 48.0074 40.6377 48.0365C40.7823 48.0656 40.8691 48.0658 40.8981 47.979C40.9271 47.9212 40.9272 47.8633 40.8983 47.8055C40.8695 47.7476 40.7828 47.6896 40.6961 47.6027C40.5805 47.5158 40.4071 47.4288 40.1758 47.2839C39.8579 47.081 39.6266 46.994 39.4821 46.9359C39.3375 46.9068 39.2507 46.9067 39.2216 46.9935C39.1637 47.0802 39.1925 47.167 39.3081 47.2539C39.3947 47.3697 39.626 47.5146 39.9439 47.6886Z" fill="white"/>
<path d="M35.6485 60.0645L35.155 61.4523L34.808 61.3362L34.3172 60.6414C34.1728 60.4387 34.0861 60.3229 34.0284 60.2361C33.9707 60.1492 33.8839 60.0913 33.8262 60.0333C33.7684 59.9754 33.6816 59.9464 33.5949 59.9174C33.5082 59.8883 33.4214 59.8882 33.3635 59.8881C33.3056 59.917 33.2477 59.9748 33.2187 60.0326C33.1897 60.0904 33.1897 60.1483 33.2185 60.2351C33.2184 60.2929 33.2761 60.3798 33.3339 60.4955L32.9576 60.6686C32.871 60.495 32.8134 60.3503 32.7846 60.2345C32.7847 60.1188 32.7849 59.9742 32.8429 59.8586C32.9299 59.6562 33.0458 59.5117 33.1906 59.4251C33.3642 59.3675 33.5377 59.3677 33.7691 59.4258C33.8558 59.4549 33.9425 59.5128 34.0292 59.5708C34.1159 59.6287 34.1737 59.6867 34.2604 59.7735C34.347 59.8604 34.4048 59.9473 34.4915 60.0342C34.5492 60.121 34.7224 60.3816 34.9533 60.7868L35.2726 59.9483L35.6485 60.0645Z" fill="white"/>
<path d="M34.9852 57.8944C35.4478 58.0685 35.7658 58.2424 35.9391 58.4451C36.1124 58.6189 36.1411 58.8503 36.054 59.1106C35.9669 59.3708 35.7932 59.4863 35.5328 59.5438C35.2724 59.5724 34.9254 59.5141 34.4628 59.34C34.0002 59.1659 33.6822 58.9919 33.5089 58.7892C33.3356 58.5865 33.3069 58.384 33.394 58.1527C33.4811 57.8925 33.6548 57.777 33.8863 57.7194C34.1467 57.6619 34.4937 57.7202 34.9852 57.8944ZM34.637 58.8195C34.9839 58.9646 35.2442 59.0228 35.3888 59.0519C35.5334 59.0521 35.6202 59.0232 35.6492 58.9365C35.6782 58.8787 35.6494 58.8208 35.6205 58.7629C35.5917 58.705 35.505 58.6471 35.3893 58.5891C35.2737 58.5311 35.0713 58.4441 34.84 58.357C34.4931 58.2409 34.2328 58.1538 34.0882 58.1536C33.9436 58.1534 33.8568 58.1822 33.8277 58.269C33.7987 58.3557 33.8275 58.4425 33.9431 58.5294C34.0587 58.5874 34.29 58.7034 34.637 58.8195Z" fill="white"/>
<path d="M32.5092 72.0076L32.4218 72.4992L30.8312 72.208C30.6577 72.1788 30.4553 72.1207 30.2529 72.0626C30.2529 72.0626 30.2818 72.1205 30.3395 72.1784C30.3973 72.2364 30.4839 72.3811 30.6283 72.5548L30.2809 72.7858L29.7324 71.9463L29.8197 71.5125L32.5092 72.0076Z" fill="white"/>
<path d="M31.5282 69.7501C32.0199 69.8375 32.3668 69.9536 32.5402 70.1274C32.7425 70.2722 32.8 70.5037 32.7708 70.764C32.7126 71.0243 32.5678 71.1976 32.3363 71.2552C32.1048 71.3417 31.7288 71.3123 31.2372 71.2249C30.7455 71.1375 30.3986 71.0214 30.1963 70.8476C29.994 70.7027 29.9075 70.4712 29.9656 70.2399C30.0238 69.9796 30.1397 69.8062 30.4001 69.7487C30.6606 69.6622 31.0366 69.6627 31.5282 69.7501ZM31.3535 70.7044C31.7295 70.7627 31.9898 70.792 32.1344 70.7922C32.279 70.7923 32.3369 70.7346 32.366 70.6478C32.366 70.59 32.3661 70.5321 32.3083 70.5031C32.2505 70.4452 32.1638 70.4162 32.0481 70.3871C31.9324 70.358 31.73 70.2999 31.4697 70.2707C31.0938 70.2124 30.8335 70.1831 30.6889 70.1829C30.5442 70.1827 30.4574 70.2405 30.4573 70.3273C30.4282 70.414 30.486 70.5009 30.6305 70.5589C30.7173 70.5879 30.9775 70.6461 31.3535 70.7044Z" fill="white"/>
<path d="M30.1816 82.823C30.6734 82.8236 31.0204 82.8819 31.2517 82.9979C31.4829 83.1139 31.5695 83.3165 31.5691 83.5768C31.5688 83.8371 31.4529 84.0395 31.2213 84.1549C30.9898 84.2703 30.6426 84.3277 30.1509 84.3271C29.6591 84.3265 29.3121 84.2682 29.0808 84.1522C28.8496 84.0362 28.7341 83.8336 28.7344 83.5733C28.7347 83.313 28.8507 83.1106 29.0533 82.9952C29.3138 82.8798 29.661 82.8224 30.1816 82.823ZM30.1804 83.8065C30.5565 83.807 30.8168 83.7783 30.9615 83.7496C31.1062 83.7208 31.1641 83.6631 31.1642 83.5763C31.1643 83.5184 31.1354 83.4606 31.0776 83.4316C31.0198 83.4026 30.933 83.3735 30.7884 83.3444C30.6438 83.3153 30.4414 83.3151 30.181 83.3147C29.805 83.3143 29.5446 83.3429 29.4 83.3716C29.2553 83.4004 29.1974 83.4582 29.1972 83.5739C29.1971 83.6606 29.2549 83.7186 29.3995 83.7477C29.5441 83.7768 29.8044 83.806 30.1804 83.8065Z" fill="white"/>
<path d="M111.342 18.9671C111.544 18.9962 111.718 19.0832 111.804 19.228C111.92 19.3727 111.948 19.5463 111.919 19.7488C111.89 19.8644 111.861 19.9801 111.774 20.0668C111.687 20.1534 111.571 20.2401 111.427 20.2978C111.571 20.4426 111.658 20.5584 111.687 20.703C111.744 20.8188 111.744 20.9634 111.715 21.108C111.686 21.3394 111.57 21.4839 111.425 21.5994C111.28 21.7149 111.078 21.7436 110.847 21.7144C110.615 21.6852 110.442 21.5693 110.326 21.4245C110.211 21.2797 110.182 21.0772 110.211 20.8458C110.24 20.7012 110.298 20.5567 110.385 20.4411C110.472 20.3255 110.588 20.2389 110.733 20.1812C110.617 20.0653 110.559 19.9496 110.502 19.8338C110.473 19.7181 110.473 19.6024 110.473 19.4577C110.502 19.2553 110.589 19.1108 110.763 18.9953C110.937 18.9666 111.139 18.9379 111.342 18.9671ZM110.703 20.9622C110.674 21.0778 110.703 21.1646 110.731 21.2225C110.76 21.2804 110.818 21.3383 110.905 21.3384C110.992 21.3675 111.078 21.3386 111.136 21.2809C111.194 21.2231 111.223 21.1363 111.252 21.0207C111.252 20.9339 111.253 20.8761 111.224 20.7892C111.195 20.7024 111.137 20.6156 111.05 20.5287L111.022 20.4997C110.935 20.5575 110.848 20.6152 110.79 20.673C110.761 20.7597 110.732 20.8465 110.703 20.9622ZM111.254 19.3719C111.197 19.3718 111.139 19.3718 111.081 19.4296C111.023 19.4873 110.994 19.5451 110.994 19.6319C110.994 19.7187 110.994 19.7766 110.993 19.8633C111.022 19.9212 111.051 20.008 111.138 20.0949C111.225 20.0372 111.283 19.9794 111.34 19.9505C111.369 19.8927 111.398 19.8349 111.427 19.7482C111.457 19.5168 111.399 19.401 111.254 19.3719Z" fill="white"/>
<path d="M113.567 20.7921C113.479 21.2837 113.363 21.6307 113.19 21.804C113.045 22.0063 112.813 22.0639 112.553 22.0346C112.293 21.9765 112.119 21.8316 112.062 21.6001C111.975 21.3686 112.005 20.9926 112.092 20.501C112.179 20.0094 112.295 19.6624 112.469 19.4601C112.614 19.2578 112.846 19.1713 113.077 19.2295C113.337 19.2877 113.511 19.4036 113.568 19.664C113.655 19.9244 113.654 20.3004 113.567 20.7921ZM112.584 20.6173C112.525 20.9933 112.496 21.2536 112.496 21.3982C112.496 21.5428 112.553 21.6007 112.64 21.6298C112.698 21.6299 112.756 21.6299 112.785 21.5721C112.843 21.5143 112.872 21.4276 112.901 21.3119C112.93 21.1962 112.988 20.9938 113.017 20.7335C113.076 20.3576 113.105 20.0973 113.105 19.9527C113.105 19.808 113.047 19.7212 112.961 19.7211C112.874 19.692 112.787 19.7498 112.729 19.8943C112.729 20.01 112.671 20.2414 112.584 20.6173Z" fill="white"/>
<path d="M120.91 24.1853L122.416 22.307L121.52 21.9877L121.665 21.554L123.053 22.0475L122.937 22.3655L121.401 24.3595L120.91 24.1853Z" fill="white"/>
<path d="M124.265 23.958C124.091 24.4206 123.917 24.7386 123.714 24.9119C123.541 25.0852 123.309 25.1139 123.049 25.0268C122.789 24.9397 122.673 24.766 122.616 24.5056C122.587 24.2452 122.645 23.8982 122.82 23.4356C122.994 22.973 123.168 22.655 123.37 22.4817C123.573 22.3084 123.776 22.2797 124.007 22.3668C124.267 22.4539 124.383 22.6276 124.44 22.8591C124.527 23.1195 124.439 23.4665 124.265 23.958ZM123.34 23.6098C123.195 23.9567 123.137 24.217 123.108 24.3616C123.107 24.5062 123.136 24.593 123.223 24.622C123.281 24.651 123.339 24.6222 123.397 24.5933C123.454 24.5645 123.512 24.4778 123.57 24.3621C123.628 24.2465 123.715 24.0441 123.803 23.8128C123.919 23.4659 124.006 23.2056 124.006 23.061C124.006 22.9164 123.977 22.8296 123.891 22.8005C123.804 22.7715 123.717 22.8003 123.63 22.9159C123.572 23.0316 123.485 23.2628 123.34 23.6098Z" fill="white"/>
<path d="M131.348 27.4671C131.638 26.9758 131.899 26.6868 132.188 26.5425C132.477 26.3983 132.767 26.4276 133.056 26.6015C133.114 26.6305 133.142 26.6594 133.2 26.6884C133.258 26.7174 133.287 26.7464 133.287 26.7753L133.084 27.1511C133.026 27.0932 132.94 27.0352 132.882 27.0062C132.766 26.9482 132.65 26.8902 132.535 26.919C132.419 26.9189 132.332 26.9766 132.216 27.0632C132.101 27.1499 132.014 27.2944 131.869 27.4678L131.898 27.4678C131.985 27.4101 132.071 27.3523 132.158 27.3524C132.245 27.3525 132.332 27.3526 132.418 27.4106C132.563 27.4976 132.65 27.6423 132.678 27.8159C132.678 27.9894 132.62 28.1918 132.504 28.452C132.359 28.7122 132.185 28.8566 131.983 28.9431C131.78 29.0297 131.578 29.0005 131.375 28.8845C131.173 28.7686 131.057 28.5949 131.058 28.3345C131.058 28.1031 131.145 27.814 131.348 27.4671ZM131.607 28.5088C131.665 28.5378 131.752 28.5379 131.839 28.4801C131.925 28.4224 132.012 28.3357 132.099 28.1912C132.157 28.0756 132.215 27.9599 132.215 27.8732C132.215 27.7864 132.187 27.7285 132.129 27.6706C132.071 27.6416 131.984 27.6415 131.926 27.6703C131.84 27.6991 131.782 27.7858 131.724 27.8726C131.637 28.0171 131.579 28.1616 131.578 28.2773C131.52 28.393 131.549 28.4509 131.607 28.5088Z" fill="white"/>
<path d="M134.268 28.917C134.007 29.3505 133.775 29.6395 133.573 29.755C133.37 29.8993 133.139 29.8991 132.907 29.7541C132.676 29.6092 132.561 29.4355 132.59 29.1752C132.59 28.9149 132.735 28.5969 132.967 28.1633C133.228 27.7297 133.46 27.4697 133.662 27.3253C133.865 27.1809 134.096 27.1812 134.328 27.3261C134.559 27.471 134.674 27.6447 134.645 27.905C134.645 28.1364 134.529 28.4834 134.268 28.917ZM133.43 28.4242C133.227 28.7421 133.111 28.9734 133.082 29.118C133.053 29.2626 133.052 29.3494 133.139 29.3784C133.197 29.4074 133.255 29.4075 133.313 29.3786C133.371 29.3498 133.429 29.2631 133.515 29.1764C133.602 29.0608 133.689 28.8873 133.834 28.6561C134.037 28.3382 134.124 28.1069 134.182 27.9623C134.211 27.8177 134.211 27.731 134.125 27.7019C134.038 27.644 133.951 27.6728 133.864 27.7884C133.748 27.875 133.604 28.1062 133.43 28.4242Z" fill="white"/>
<path d="M141.233 33.554C141.377 33.6988 141.464 33.8435 141.464 34.046C141.464 34.2195 141.377 34.4219 141.232 34.6242C141.029 34.8554 140.826 34.9708 140.624 34.9995C140.392 35.0281 140.19 34.97 139.988 34.7962C139.814 34.6514 139.699 34.4777 139.641 34.3041L139.96 33.9284C139.989 34.0152 140.017 34.102 140.075 34.1889C140.133 34.2757 140.191 34.3626 140.248 34.4205C140.451 34.5943 140.653 34.5656 140.856 34.3345C141.03 34.1033 141.03 33.9297 140.828 33.7559C140.741 33.698 140.654 33.64 140.539 33.582L140.481 33.3795L141.437 32.3972L142.333 33.1503L142.043 33.4971L141.494 33.0336L141.089 33.467C141.089 33.467 141.175 33.496 141.233 33.554Z" fill="white"/>
<path d="M142.908 35.4071C142.59 35.7827 142.3 36.0137 142.069 36.1002C141.837 36.1867 141.606 36.1575 141.403 35.9837C141.201 35.8099 141.115 35.6073 141.173 35.376C141.231 35.1447 141.405 34.8267 141.723 34.451C142.042 34.0754 142.332 33.8444 142.563 33.7579C142.795 33.6714 143.026 33.7006 143.199 33.8744C143.402 34.0482 143.488 34.2507 143.43 34.4821C143.43 34.7135 143.227 35.0314 142.908 35.4071ZM142.157 34.7698C141.896 35.0587 141.751 35.261 141.693 35.4056C141.635 35.5212 141.635 35.608 141.722 35.6659C141.78 35.6949 141.838 35.7239 141.896 35.6951C141.953 35.6662 142.04 35.6085 142.127 35.5218C142.214 35.4351 142.359 35.2907 142.533 35.0884C142.764 34.7994 142.938 34.5972 142.996 34.4526C143.054 34.337 143.054 34.2213 142.997 34.1634C142.939 34.1054 142.823 34.1053 142.707 34.1919C142.563 34.3075 142.389 34.4808 142.157 34.7698Z" fill="white"/>
<path d="M149.264 42.8491L149.09 42.6464L148.656 43.0219L148.338 42.6455L148.773 42.27L148.195 41.5751L148.513 41.3151L150.394 40.8257L150.741 41.2311L149.409 42.3576L149.582 42.5603L149.264 42.8491ZM149.091 41.9811L149.525 41.6056L149.728 41.4613L149.931 41.3169C149.786 41.3746 149.67 41.4033 149.555 41.4321L148.802 41.6337L149.091 41.9811Z" fill="white"/>
<path d="M150.969 43.6323C150.593 43.95 150.274 44.1232 150.043 44.1807C149.811 44.2383 149.58 44.1512 149.407 43.9485C149.233 43.7459 149.205 43.5433 149.292 43.312C149.379 43.0807 149.611 42.8207 150.016 42.503C150.392 42.1853 150.711 42.0121 150.971 41.9546C151.232 41.8971 151.434 41.9841 151.607 42.1868C151.781 42.3895 151.809 42.592 151.722 42.8233C151.577 43.0256 151.346 43.3146 150.969 43.6323ZM150.334 42.8794C150.044 43.1394 149.841 43.3127 149.783 43.3994C149.696 43.515 149.696 43.6018 149.754 43.6597C149.783 43.7176 149.841 43.7177 149.928 43.7178C149.985 43.7179 150.072 43.6601 150.188 43.6024C150.304 43.5158 150.449 43.4002 150.651 43.2269C150.941 42.9959 151.115 42.7936 151.202 42.678C151.289 42.5624 151.289 42.4757 151.231 42.3888C151.173 42.3309 151.086 42.3019 150.942 42.3884C150.826 42.4751 150.623 42.6195 150.334 42.8794Z" fill="white"/>
<path d="M156.861 50.929C156.716 51.0156 156.572 51.0444 156.427 51.0442C156.282 51.044 156.167 50.9571 156.051 50.8413C156.109 51.0149 156.109 51.1595 156.08 51.2752C156.022 51.4198 155.935 51.5353 155.761 51.6219C155.53 51.7373 155.327 51.766 155.125 51.7079C154.922 51.6498 154.749 51.505 154.604 51.2734C154.489 51.0708 154.431 50.8682 154.403 50.6946L154.808 50.4637C154.808 50.5505 154.808 50.6662 154.837 50.753C154.865 50.8398 154.894 50.9266 154.923 51.0134C155.01 51.1292 155.067 51.2161 155.183 51.2452C155.27 51.2742 155.386 51.2454 155.501 51.1877C155.733 51.0434 155.762 50.8409 155.618 50.5515L155.531 50.4067L155.85 50.2047L155.936 50.3205C156.023 50.4363 156.11 50.5232 156.196 50.5522C156.283 50.5812 156.399 50.5814 156.515 50.4947C156.601 50.437 156.659 50.3792 156.688 50.2925C156.717 50.2347 156.689 50.1478 156.66 50.061C156.602 49.9453 156.457 49.8583 156.313 49.8003L156.487 49.4244C156.747 49.4826 156.949 49.6564 157.065 49.888C157.18 50.0906 157.209 50.2642 157.18 50.4377C157.151 50.698 157.035 50.8425 156.861 50.929Z" fill="white"/>
<path d="M157.148 52.9254C156.713 53.1852 156.366 53.3005 156.135 53.3002C155.874 53.2999 155.701 53.1839 155.557 52.9813C155.412 52.7497 155.412 52.5183 155.557 52.316C155.702 52.1137 155.963 51.8826 156.397 51.6228C156.831 51.363 157.179 51.2477 157.41 51.248C157.67 51.2483 157.844 51.3643 157.988 51.5669C158.132 51.7985 158.132 52.001 157.987 52.2322C157.842 52.4345 157.582 52.6656 157.148 52.9254ZM156.628 52.0859C156.309 52.288 156.078 52.4323 155.991 52.519C155.904 52.6057 155.875 52.6924 155.904 52.7792C155.933 52.8371 155.991 52.8661 156.048 52.8662C156.106 52.8663 156.222 52.8375 156.338 52.7798C156.454 52.7221 156.627 52.6355 156.859 52.4912C157.177 52.2891 157.409 52.1736 157.496 52.0581C157.612 51.9714 157.612 51.8846 157.583 51.7978C157.525 51.711 157.438 51.7109 157.323 51.7397C157.207 51.7684 156.975 51.8839 156.628 52.0859Z" fill="white"/>
<path d="M159.711 61.9246L159.221 60.5356L159.568 60.4203L160.378 60.6527C160.609 60.7108 160.754 60.7399 160.87 60.769C160.985 60.7981 161.072 60.7982 161.159 60.7694C161.246 60.7695 161.332 60.7406 161.419 60.7118C161.506 60.683 161.593 60.6253 161.622 60.5675C161.651 60.5096 161.651 60.4518 161.622 60.365C161.593 60.3071 161.564 60.2492 161.507 60.2202C161.449 60.1912 161.362 60.1332 161.247 60.0753L161.421 59.6994C161.594 59.7575 161.739 59.8445 161.825 59.9313C161.912 60.0182 161.97 60.134 162.027 60.2498C162.114 60.4524 162.114 60.6548 162.027 60.7994C161.94 60.9728 161.795 61.0883 161.592 61.1459C161.505 61.1748 161.39 61.2035 161.303 61.2034C161.216 61.2033 161.1 61.2032 161.014 61.2031C160.898 61.2029 160.811 61.1739 160.667 61.1448C160.551 61.1157 160.262 61.0286 159.828 60.8834L160.145 61.7227L159.711 61.9246Z" fill="white"/>
<path d="M161.59 63.1707C161.127 63.3436 160.78 63.4011 160.519 63.3718C160.259 63.3426 160.115 63.1978 159.999 62.9373C159.913 62.6768 159.942 62.4744 160.116 62.3011C160.29 62.1277 160.608 61.9546 161.071 61.7816C161.534 61.6086 161.881 61.5512 162.141 61.5804C162.402 61.6097 162.575 61.7545 162.662 62.015C162.748 62.2754 162.719 62.4778 162.545 62.6512C162.4 62.7956 162.082 62.9977 161.59 63.1707ZM161.273 62.2157C160.926 62.3599 160.665 62.4464 160.549 62.533C160.434 62.6196 160.405 62.6775 160.433 62.7643C160.462 62.8222 160.491 62.8511 160.578 62.8802C160.636 62.8802 160.751 62.8804 160.867 62.8516C160.983 62.8228 161.185 62.7652 161.446 62.6787C161.793 62.5635 162.025 62.4481 162.141 62.3614C162.256 62.2748 162.314 62.1881 162.257 62.1012C162.228 62.0144 162.141 61.9854 161.996 61.9852C161.881 62.0429 161.62 62.1004 161.273 62.2157Z" fill="white"/>
<path d="M162.533 72.226L162.447 71.7341L164.038 71.4468C164.212 71.4181 164.414 71.3894 164.646 71.3608C164.646 71.3608 164.588 71.3318 164.53 71.2739C164.472 71.216 164.328 71.129 164.126 71.0131L164.386 70.6663L165.167 71.2747L165.253 71.7087L162.533 72.226Z" fill="white"/>
<path d="M164.238 74.0215C163.746 74.1076 163.399 74.1072 163.139 74.0201C162.907 73.933 162.763 73.7593 162.705 73.4989C162.648 73.2385 162.735 73.0361 162.937 72.8917C163.14 72.7474 163.487 72.6321 163.95 72.5459C164.442 72.4597 164.789 72.4601 165.049 72.5472C165.281 72.6343 165.425 72.808 165.483 73.0395C165.54 73.2999 165.453 73.5023 165.251 73.6467C165.077 73.7911 164.73 73.9353 164.238 74.0215ZM164.065 73.0378C163.689 73.0952 163.429 73.1527 163.313 73.2104C163.197 73.2681 163.139 73.3259 163.139 73.4416C163.139 73.4994 163.197 73.5574 163.255 73.5574C163.313 73.5864 163.428 73.5866 163.544 73.5867C163.689 73.5869 163.862 73.5582 164.152 73.5007C164.528 73.4433 164.759 73.3857 164.904 73.3281C165.02 73.2704 165.078 73.1836 165.078 73.0969C165.049 73.0101 164.991 72.9521 164.846 72.952C164.673 72.9517 164.441 72.9804 164.065 73.0378Z" fill="white"/>
<path d="M164.919 84.349C164.427 84.3484 164.08 84.2901 163.849 84.1741C163.618 84.0581 163.531 83.8555 163.531 83.5952C163.532 83.3349 163.648 83.1325 163.879 83.0171C164.111 82.9017 164.458 82.8443 164.95 82.8449C165.441 82.8455 165.788 82.9038 166.02 83.0198C166.251 83.1357 166.366 83.3384 166.366 83.5987C166.366 83.859 166.25 84.0614 166.047 84.1768C165.787 84.2922 165.439 84.3496 164.919 84.349ZM164.92 83.3366C164.544 83.3361 164.284 83.3647 164.139 83.3935C163.994 83.4222 163.936 83.48 163.936 83.5668C163.936 83.6246 163.965 83.6825 164.023 83.7115C164.081 83.7405 164.167 83.7695 164.312 83.7986C164.457 83.8278 164.659 83.828 164.919 83.8283C165.295 83.8288 165.556 83.8002 165.701 83.7714C165.845 83.7427 165.903 83.6849 165.903 83.5692C165.903 83.4824 165.846 83.4245 165.701 83.3954C165.556 83.3663 165.296 83.3371 164.92 83.3366Z" fill="white"/>
<path d="M38.2497 84.7423L38.2491 85.234L36.6582 85.2321C36.4847 85.2319 36.2822 85.2316 36.0508 85.2024C36.0508 85.2024 36.1086 85.2314 36.1664 85.2893C36.2242 85.3472 36.3398 85.4631 36.5131 85.6079L36.1946 85.8968L35.5302 85.1728L35.5308 84.71L38.2498 84.7134L38.2497 84.7423Z" fill="white"/>
<path d="M35.4746 83.4371C35.4749 83.2346 35.5329 83.0611 35.6488 82.9166C35.7647 82.7721 35.9383 82.7145 36.1408 82.7147C36.2565 82.7149 36.3722 82.744 36.4878 82.8019C36.6034 82.8599 36.6901 82.9758 36.7767 83.0916C36.8926 82.9181 37.0084 82.8315 37.1242 82.7449C37.24 82.6872 37.3847 82.6584 37.5004 82.6586C37.7318 82.6589 37.9053 82.7169 38.0497 82.8617C38.1942 83.0065 38.2518 83.1802 38.2515 83.4116C38.2512 83.643 38.1931 83.8454 38.0484 83.9609C37.9325 84.1054 37.7299 84.163 37.4985 84.1627C37.3539 84.1625 37.2093 84.1334 37.0937 84.0754C36.978 84.0174 36.8625 83.9016 36.7759 83.7568C36.66 83.8724 36.5731 83.988 36.4573 84.0457C36.3416 84.1034 36.2258 84.1322 36.1101 84.1321C35.9077 84.1318 35.7342 84.0737 35.6186 83.929C35.532 83.8132 35.4744 83.6395 35.4746 83.4371ZM35.8796 83.4376C35.8795 83.4954 35.9084 83.5533 35.9661 83.6112C36.024 83.6402 36.0818 83.6692 36.1975 83.6694C36.2843 83.6695 36.3421 83.6406 36.4 83.6118C36.4579 83.5829 36.5158 83.5251 36.6027 83.4384C36.545 83.3516 36.4872 83.2937 36.4005 83.2647C36.3426 83.2357 36.2559 83.2066 36.1691 83.2065C35.9666 83.2352 35.8798 83.2929 35.8796 83.4376ZM37.528 83.6999C37.6437 83.7001 37.7305 83.6713 37.7884 83.6424C37.8464 83.5846 37.8753 83.5268 37.8755 83.44C37.8756 83.3532 37.8467 83.2664 37.7889 83.2374C37.7312 83.1795 37.6444 83.1794 37.5287 83.1793C37.4419 83.1792 37.384 83.208 37.2972 83.2368C37.2393 83.2657 37.1524 83.3524 37.0655 83.439L37.0366 83.4679C37.0943 83.5548 37.1521 83.6127 37.2388 83.6417C37.3255 83.6997 37.4123 83.6998 37.528 83.6999Z" fill="white"/>
<path d="M36.8662 80.9223C37.3579 80.9229 37.705 80.9811 37.9362 81.0971C38.1675 81.2131 38.254 81.4157 38.2537 81.676C38.2534 81.9364 38.1374 82.1387 37.9059 82.2541C37.6743 82.3695 37.3272 82.427 36.8354 82.4264C36.3437 82.4257 35.9967 82.3675 35.7654 82.2515C35.5341 82.1355 35.4187 81.9329 35.419 81.6725C35.4193 81.4122 35.5353 81.2099 35.7379 81.0944C35.9984 80.979 36.3745 80.9217 36.8662 80.9223ZM36.865 81.9057C37.241 81.9062 37.5014 81.8776 37.6461 81.8488C37.7907 81.8201 37.8486 81.7623 37.8488 81.6755C37.8488 81.6177 37.82 81.5598 37.7622 81.5308C37.7043 81.5018 37.6176 81.4728 37.473 81.4437C37.3284 81.4146 37.1259 81.4143 36.8656 81.414C36.4896 81.4135 36.2292 81.4421 36.0845 81.4709C35.9399 81.4996 35.8819 81.5574 35.8818 81.6731C35.8817 81.7599 35.9395 81.8178 36.0841 81.8469C36.2287 81.876 36.489 81.9053 36.865 81.9057Z" fill="white"/>
<path d="M38.9867 73.8378L38.8993 74.3294L37.3088 74.0382C37.1352 74.0091 36.9328 73.951 36.7304 73.8929C36.7304 73.8929 36.7593 73.9508 36.8171 74.0087C36.8748 74.0666 36.9614 74.2114 37.1059 74.3851L36.7585 74.6161L36.2099 73.7765L36.2972 73.3428L38.9867 73.8378Z" fill="white"/>
<path d="M39.1319 73.1148L37.0217 71.9552L36.847 72.8806L36.4133 72.7933L36.6754 71.3473L37.0224 71.4056L39.2483 72.5654L39.1319 73.1148Z" fill="white"/>
<path d="M38.3256 69.8453C38.8172 69.9327 39.1642 70.0488 39.3375 70.2226C39.5398 70.3675 39.5974 70.5989 39.5682 70.8592C39.51 71.1195 39.3651 71.2929 39.1337 71.3504C38.9021 71.4369 38.5261 71.4075 38.0345 71.3201C37.5429 71.2328 37.1959 71.1166 36.9937 70.9428C36.7914 70.7979 36.7049 70.5664 36.763 70.3351C36.8212 70.0748 36.9371 69.9014 37.1975 69.8439C37.4579 69.7574 37.805 69.7579 38.3256 69.8453ZM38.1509 70.7996C38.5268 70.8579 38.7871 70.8872 38.9318 70.8874C39.0764 70.8875 39.1343 70.8298 39.1633 70.743C39.1634 70.6852 39.1635 70.6273 39.1057 70.5983C39.0479 70.5404 38.9611 70.5114 38.8455 70.4823C38.7298 70.4532 38.5274 70.3951 38.2671 70.3659C37.8911 70.3076 37.6308 70.2783 37.4862 70.2781C37.3416 70.278 37.2547 70.3357 37.2546 70.4225C37.2256 70.5092 37.2833 70.5961 37.4279 70.6541C37.5146 70.6831 37.7749 70.7413 38.1509 70.7996Z" fill="white"/>
<path d="M41.6323 63.2249L41.4581 63.6875L39.9547 63.1361C39.7812 63.078 39.6078 62.991 39.4054 62.904C39.4054 62.904 39.4342 62.9619 39.492 63.0198C39.5208 63.1066 39.6075 63.2224 39.694 63.4539L39.3177 63.627L38.9428 62.7009L39.088 62.2672L41.6323 63.2249Z" fill="white"/>
<path d="M40.7076 62.3268C40.1872 62.1236 39.8404 61.9207 39.6382 61.6602C39.465 61.3996 39.4364 61.1103 39.5525 60.7923C39.5815 60.7345 39.5816 60.6766 39.6105 60.6477C39.6395 60.5899 39.6685 60.561 39.6685 60.5321L40.0733 60.6772C40.0153 60.7639 39.9863 60.8217 39.9573 60.9085C39.8993 61.053 39.8991 61.1687 39.928 61.2556C39.9567 61.3713 40.0145 61.4581 40.1301 61.5451C40.2168 61.6319 40.3902 61.7189 40.5926 61.806L40.5926 61.777C40.5059 61.6902 40.4482 61.6033 40.4194 61.5165C40.3906 61.4297 40.3907 61.3429 40.4487 61.2273C40.5067 61.0538 40.6226 60.9382 40.7962 60.9095C40.9698 60.8519 41.2012 60.8811 41.4613 60.9971C41.7216 61.0842 41.9239 61.2291 42.0393 61.4317C42.1548 61.6054 42.1546 61.8079 42.0964 62.0392C42.0094 62.2705 41.8646 62.415 41.6331 62.4436C41.4016 62.5012 41.0835 62.4719 40.7076 62.3268ZM41.6916 61.8941C41.7206 61.8363 41.6918 61.7495 41.634 61.6915C41.5763 61.6336 41.4607 61.5467 41.2872 61.4886C41.1426 61.4306 41.0558 61.4305 40.9401 61.4304C40.8534 61.4302 40.7954 61.488 40.7664 61.5748C40.7374 61.6326 40.7662 61.7194 40.824 61.7773C40.8818 61.8352 40.9685 61.8932 41.0841 61.9512C41.2576 62.0093 41.4022 62.0384 41.489 62.0385C41.6047 62.0097 41.6626 61.9519 41.6916 61.8941Z" fill="white"/>
<path d="M41.6371 59.1753C42.0997 59.3494 42.4176 59.5234 42.591 59.6971C42.7643 59.8709 42.7929 60.1023 42.7058 60.3626C42.6188 60.6228 42.4451 60.7383 42.1847 60.7958C41.9243 60.8244 41.5772 60.7661 41.1146 60.592C40.6521 60.4179 40.3341 60.2439 40.1608 60.0412C39.9875 59.8385 39.9588 59.636 40.0459 59.4047C40.133 59.1445 40.3067 59.029 40.5381 58.9715C40.8274 58.9429 41.1745 59.0012 41.6371 59.1753ZM41.3177 60.1005C41.6647 60.2456 41.9249 60.3037 42.0695 60.3329C42.2141 60.333 42.301 60.3042 42.33 60.2175C42.359 60.1597 42.3301 60.1018 42.3013 60.0439C42.2724 59.986 42.1857 59.928 42.0701 59.87C41.9545 59.8121 41.7521 59.725 41.5208 59.638C41.1738 59.5218 40.9136 59.4347 40.769 59.4346C40.6243 59.4344 40.5375 59.4632 40.5085 59.5499C40.4795 59.6367 40.5083 59.7235 40.6239 59.8104C40.7106 59.8684 40.9418 59.9844 41.3177 60.1005Z" fill="white"/>
<path d="M46.0699 53.2507L45.809 53.6842L44.4216 52.8726C44.2771 52.7856 44.1037 52.6697 43.9013 52.5538C43.9013 52.5538 43.9302 52.6117 43.959 52.6985C43.9878 52.7853 44.0166 52.9299 44.1031 53.1615L43.698 53.2477L43.4678 52.2929L43.6997 51.8882L46.0699 53.2507Z" fill="white"/>
<path d="M45.2629 51.2249C45.3789 51.0515 45.5236 50.936 45.6972 50.9073C45.8708 50.8786 46.0732 50.9078 46.3045 51.0527C46.5646 51.1976 46.738 51.3714 46.7955 51.6029C46.8531 51.8054 46.8239 52.0368 46.7079 52.2681C46.592 52.4704 46.4472 52.6148 46.3024 52.7014L45.8978 52.4695C45.9557 52.4407 46.0425 52.3829 46.1294 52.3252C46.2162 52.2674 46.2742 52.1807 46.3032 52.1229C46.4481 51.8917 46.3615 51.6891 46.1014 51.5442C45.8412 51.3992 45.6676 51.4279 45.5227 51.6591C45.4648 51.7459 45.4357 51.8615 45.4066 51.9772L45.233 52.0638L44.0769 51.3103L44.6566 50.2986L45.0613 50.5305L44.6845 51.1664L45.1758 51.4852C45.176 51.3695 45.205 51.3116 45.2629 51.2249Z" fill="white"/>
<path d="M46.7985 49.2599C47.2321 49.5207 47.5211 49.7525 47.6365 49.9551C47.7809 50.1578 47.7806 50.3892 47.6357 50.6204C47.4908 50.8517 47.3171 50.9671 47.0568 50.9379C46.7965 50.9376 46.4784 50.7926 46.0448 50.5606C45.6113 50.2997 45.3512 50.068 45.2069 49.8654C45.0625 49.6627 45.0628 49.4313 45.2077 49.2001C45.3526 48.9688 45.5263 48.8533 45.7866 48.8826C46.018 48.8829 46.336 48.999 46.7985 49.2599ZM46.2768 50.127C46.5947 50.3299 46.826 50.4459 46.9706 50.475C47.1152 50.5041 47.2019 50.5042 47.231 50.4174C47.26 50.3596 47.2601 50.3018 47.2312 50.2439C47.2023 50.186 47.1156 50.128 47.029 50.0412C46.9134 49.9542 46.7399 49.8672 46.5087 49.7223C46.1908 49.5195 45.9595 49.4324 45.8149 49.3744C45.6703 49.3453 45.5835 49.3452 45.5545 49.4319C45.4965 49.5186 45.5254 49.6054 45.641 49.6923C45.7566 49.7793 45.9589 49.9241 46.2768 50.127Z" fill="white"/>
<path d="M52.156 44.1758L51.8373 44.5515L50.5948 43.5086C50.4503 43.3927 50.3059 43.2479 50.1614 43.1031C50.1614 43.132 50.1614 43.161 50.1902 43.2478C50.1901 43.3345 50.2188 43.4792 50.2475 43.7107L49.8135 43.739L49.7569 42.7555L50.0466 42.4087L52.156 44.1758Z" fill="white"/>
<path d="M53.0836 42.181L52.9098 42.3832L53.3433 42.7598L53.0246 43.1355L52.5912 42.7589L52.0118 43.4524L51.694 43.1917L50.8862 41.4262L51.2338 41.0217L52.563 42.1514L52.7368 41.9491L53.0836 42.181ZM52.2733 42.4982L51.8399 42.1216L51.6376 41.9478L51.4643 41.774C51.5509 41.8898 51.6086 42.0056 51.6664 42.1214L51.9837 42.816L52.2733 42.4982Z" fill="white"/>
<path d="M53.5778 40.3882C53.9535 40.7068 54.1845 40.9964 54.271 41.2279C54.3575 41.4594 54.3283 41.6908 54.1545 41.893C53.9807 42.0953 53.7781 42.1818 53.5467 42.1237C53.3154 42.0656 52.9974 41.8916 52.6218 41.573C52.2462 41.2543 52.0151 40.9648 51.9286 40.7333C51.8421 40.5018 51.8713 40.2704 52.0451 40.097C52.2189 39.8948 52.4215 39.8082 52.6528 39.8664C52.8553 39.8666 53.1732 40.0695 53.5778 40.3882ZM52.9405 41.1395C53.2295 41.4002 53.4318 41.545 53.5763 41.6031C53.6919 41.6611 53.7787 41.6612 53.8367 41.5745C53.8657 41.5166 53.8947 41.4588 53.8658 41.4009C53.837 41.3431 53.7792 41.2562 53.6925 41.1693C53.6059 41.0824 53.4614 40.9376 53.2592 40.7638C52.9702 40.5321 52.7679 40.3583 52.6234 40.3002C52.5077 40.2422 52.392 40.2421 52.3341 40.2999C52.2762 40.3577 52.276 40.4734 52.3627 40.5892C52.4493 40.7339 52.6515 40.9077 52.9405 41.1395Z" fill="white"/>
<path d="M59.7447 36.3168L59.3682 36.6345L58.3284 35.3894C58.2129 35.2446 58.0974 35.0999 57.953 34.8972C57.953 34.9261 57.9529 34.9551 57.9528 35.0418C57.9527 35.1286 57.9525 35.2732 57.9233 35.5046L57.5184 35.4463L57.6354 34.4629L57.9828 34.1741L59.7447 36.3168Z" fill="white"/>
<path d="M59.8928 33.4533C60.0083 33.598 60.066 33.7138 60.0659 33.8584C60.0657 34.0031 60.0366 34.1477 59.9496 34.2633C60.0944 34.1767 60.239 34.1479 60.3837 34.1481C60.5283 34.1772 60.6439 34.2641 60.7594 34.38C60.9327 34.5827 60.9903 34.7852 60.9612 34.9877C60.932 35.1901 60.816 35.3924 60.6133 35.5657C60.4396 35.7102 60.237 35.8256 60.0634 35.8543L59.7746 35.5069C59.8614 35.478 59.9771 35.4782 60.0639 35.4204C60.1507 35.3916 60.2376 35.3339 60.2955 35.2761C60.4113 35.1895 60.4693 35.0738 60.4694 34.987C60.4695 34.9003 60.4407 34.7845 60.3541 34.6687C60.1808 34.466 59.9494 34.4657 59.7177 34.6679L59.6019 34.7546L59.3709 34.465L59.4867 34.3784C59.6025 34.2918 59.6605 34.1761 59.6895 34.0894C59.7186 33.9737 59.6609 33.8869 59.5742 33.7711C59.5165 33.6842 59.4297 33.6552 59.3719 33.6262C59.2851 33.6261 59.2273 33.6549 59.1404 33.7127C59.0246 33.7993 58.9666 33.9439 58.9374 34.1174L58.5326 34.0012C58.5619 33.7409 58.6778 33.5096 58.8805 33.3363C59.0543 33.1919 59.2279 33.1053 59.4015 33.1345C59.6039 33.1926 59.7484 33.2795 59.8928 33.4533Z" fill="white"/>
<path d="M61.7734 32.8192C62.0911 33.1957 62.2643 33.5141 62.3218 33.7455C62.3794 33.977 62.2923 34.2083 62.0897 34.3816C61.887 34.5549 61.6844 34.5836 61.4531 34.4965C61.2218 34.4095 60.9618 34.1778 60.6441 33.7724C60.3264 33.396 60.1532 33.0776 60.0957 32.8172C60.0382 32.5568 60.1252 32.3544 60.3279 32.1811C60.5306 32.0078 60.7331 31.9791 60.9644 32.0662C61.1956 32.2111 61.4557 32.4428 61.7734 32.8192ZM61.0205 33.4547C61.2805 33.7443 61.4538 33.947 61.5695 34.005C61.6851 34.0919 61.7718 34.092 61.8298 34.0342C61.8876 34.0053 61.8877 33.9475 61.8878 33.8896C61.8879 33.8318 61.8301 33.7449 61.7724 33.6292C61.6858 33.5134 61.5702 33.3686 61.3969 33.1659C61.1659 32.8763 60.9636 32.7025 60.848 32.6156C60.7324 32.5287 60.6457 32.5286 60.5588 32.5863C60.5009 32.6441 60.4719 32.7309 60.5584 32.8756C60.6451 32.9625 60.7895 33.1651 61.0205 33.4547Z" fill="white"/>
<path d="M68.5749 29.9061L68.1407 30.1659L67.3325 28.7765C67.2459 28.6317 67.1593 28.4581 67.0438 28.2554C67.0438 28.2844 67.0438 28.3133 67.0147 28.4C66.9857 28.4868 66.9566 28.6314 66.8985 28.8627L66.4937 28.7465L66.7841 27.7923L67.1893 27.5614L68.5749 29.9061Z" fill="white"/>
<path d="M70.3117 28.8958L69.038 29.6174L68.836 29.299L68.9238 28.4602C68.953 28.2289 68.9532 28.0553 68.9533 27.9685C68.9534 27.8528 68.9246 27.766 68.9247 27.6792C68.8959 27.5924 68.8671 27.5056 68.8382 27.4477C68.7805 27.3609 68.7227 27.303 68.6649 27.274C68.6071 27.245 68.5203 27.2738 68.4624 27.3026C68.4045 27.3315 68.3466 27.3893 68.3176 27.4471C68.2886 27.5049 68.2595 27.5916 68.2305 27.7073L67.8257 27.5911C67.8548 27.3887 67.9129 27.2441 67.9998 27.1574C68.0577 27.0418 68.1736 26.9552 68.2604 26.8974C68.463 26.782 68.6366 26.7533 68.8101 26.8113C68.9836 26.8694 69.1281 26.9853 69.2435 27.1879C69.3013 27.2747 69.3301 27.3616 69.3589 27.4484C69.3877 27.5352 69.4165 27.6509 69.4164 27.7377C69.4163 27.8534 69.4161 27.9691 69.416 28.0848C69.4158 28.2005 69.3576 28.4897 69.2992 28.9524L70.0807 28.5195L70.3117 28.8958Z" fill="white"/>
<path d="M71.1819 26.8143C71.4417 27.2485 71.557 27.5957 71.5567 27.8271C71.5564 28.0875 71.4404 28.2609 71.2378 28.4052C71.0062 28.5496 70.7748 28.5493 70.5725 28.4044C70.3702 28.2595 70.1391 27.9989 69.8793 27.5647C69.6195 27.1305 69.5042 26.7833 69.5045 26.5519C69.5048 26.2915 69.6208 26.1181 69.8234 25.9737C70.055 25.8294 70.2575 25.8296 70.4887 25.9746C70.72 26.0905 70.951 26.3801 71.1819 26.8143ZM70.3424 27.305C70.5445 27.6234 70.6889 27.855 70.7755 27.9419C70.8622 28.0287 70.949 28.0578 71.0358 28.029C71.0937 28.0001 71.1226 27.9423 71.1227 27.8844C71.1228 27.8266 71.094 27.7108 71.0363 27.5951C70.9786 27.4793 70.892 27.3056 70.7477 27.0741C70.5456 26.7556 70.4302 26.5241 70.3146 26.4372C70.228 26.3213 70.1412 26.3212 70.0544 26.3501C69.9675 26.4078 69.9674 26.4946 69.9962 26.6103C70.025 26.7261 70.1404 26.9576 70.3424 27.305Z" fill="white"/>
<path d="M78.3864 25.0875L77.9234 25.2605L77.3757 23.7557C77.3181 23.5821 77.2604 23.4085 77.2028 23.177C77.2028 23.2059 77.1738 23.2348 77.1448 23.3215C77.1158 23.4083 77.0577 23.5528 76.9707 23.7552L76.5949 23.5523L77.0588 22.6851L77.4929 22.541L78.3864 25.0875Z" fill="white"/>
<path d="M80.0359 24.4821L79.5728 24.6551L79.0251 23.1503C78.9675 22.9767 78.9098 22.803 78.8523 22.5716C78.8522 22.6005 78.8233 22.6294 78.7942 22.7161C78.7652 22.8029 78.7072 22.9474 78.6201 23.1498L78.2444 22.9468L78.7082 22.0796L79.1423 21.9356L80.0359 24.4821Z" fill="white"/>
<path d="M81.5136 22.5169C81.6866 22.98 81.744 23.3272 81.7148 23.5874C81.6855 23.8477 81.5407 23.9922 81.2803 24.1076C81.0198 24.194 80.8174 24.1649 80.644 23.9911C80.4707 23.8173 80.2975 23.4989 80.1246 23.0359C79.9516 22.5729 79.8941 22.2257 79.9234 21.9654C79.9526 21.7051 80.0975 21.5317 80.3579 21.4453C80.6184 21.3588 80.8208 21.388 80.9941 21.5618C81.1675 21.7066 81.3407 22.025 81.5136 22.5169ZM80.5876 22.834C80.7318 23.1813 80.8183 23.4417 80.9049 23.5575C80.9915 23.6733 81.0494 23.7023 81.1362 23.6735C81.1941 23.6447 81.223 23.6158 81.252 23.529C81.2521 23.4712 81.2523 23.3555 81.2235 23.2397C81.1947 23.124 81.1371 22.9214 81.0506 22.661C80.9354 22.3138 80.8199 22.0822 80.7333 21.9664C80.6467 21.8506 80.56 21.7926 80.4731 21.8504C80.3863 21.8792 80.3573 21.9659 80.3571 22.1106C80.3859 22.2263 80.4434 22.4867 80.5876 22.834Z" fill="white"/>
<path d="M88.7461 22.0915L88.2543 22.1777L87.967 20.5864C87.9383 20.4128 87.9096 20.2103 87.881 19.9788C87.881 19.9788 87.852 20.0367 87.794 20.0944C87.7361 20.1522 87.6492 20.2967 87.5332 20.4991L87.1864 20.2383L87.7948 19.4581L88.2288 19.3718L88.7461 22.0915Z" fill="white"/>
<path d="M90.5124 20.3876C90.5985 20.8795 90.5981 21.2266 90.511 21.4868C90.424 21.7181 90.2502 21.8625 89.9898 21.9201C89.7294 21.9776 89.527 21.8906 89.3827 21.6879C89.2383 21.4852 89.123 21.138 89.0368 20.6751C88.9506 20.1832 88.9511 19.8361 89.0382 19.5759C89.1252 19.3446 89.299 19.2002 89.5304 19.1426C89.7908 19.0851 89.9932 19.1721 90.1376 19.3748C90.3109 19.5485 90.4262 19.8958 90.5124 20.3876ZM89.5576 20.56C89.615 20.9361 89.6725 21.1965 89.7302 21.3123C89.7879 21.4281 89.8457 21.486 89.9614 21.4861C90.0193 21.4862 90.0772 21.4284 90.0773 21.3706C90.1063 21.3128 90.1064 21.197 90.1066 21.0813C90.1067 20.9367 90.078 20.7631 90.0205 20.4738C89.9631 20.0977 89.9056 19.8662 89.8479 19.7215C89.7902 19.6057 89.7035 19.5478 89.6167 19.5477C89.5299 19.5765 89.472 19.6343 89.4718 19.7789C89.4427 19.9235 89.4713 20.1839 89.5576 20.56Z" fill="white"/>
<path d="M92.2775 20.1005C92.3637 20.5924 92.3632 20.9395 92.2762 21.1997C92.1891 21.431 92.0153 21.5754 91.7549 21.6329C91.4945 21.6905 91.2922 21.6034 91.1478 21.4008C91.0034 21.1981 90.8881 20.8509 90.8019 20.388C90.7158 19.8961 90.7162 19.549 90.8033 19.2888C90.8904 19.0575 91.0641 18.9131 91.2956 18.8555C91.556 18.798 91.7583 18.885 91.9027 19.0877C92.0761 19.2614 92.1914 19.5798 92.2775 20.1005ZM91.2938 20.2729C91.3512 20.649 91.4087 20.9094 91.4664 21.0251C91.5241 21.1409 91.5819 21.1988 91.6976 21.199C91.7555 21.1991 91.8134 21.1413 91.8135 21.0834C91.8425 21.0256 91.8426 20.9099 91.8428 20.7942C91.8429 20.6496 91.8142 20.476 91.7567 20.1867C91.6993 19.8105 91.6418 19.5791 91.5841 19.4344C91.5264 19.3186 91.4397 19.2606 91.3529 19.2605C91.2661 19.2893 91.2082 19.3471 91.208 19.4918C91.2078 19.6364 91.2364 19.8968 91.2938 20.2729Z" fill="white"/>
<path d="M44.5285 83.3036L39.0615 83.2969L39.061 83.7018L44.528 83.7086L44.5285 83.3036Z" fill="white"/>
<path d="M40.0581 72.5581L39.9873 72.9568L45.37 73.9126L45.4408 73.5138L40.0581 72.5581Z" fill="white"/>
<path d="M42.8963 62.166L42.7573 62.5463L47.8923 64.4224L48.0313 64.042L42.8963 62.166Z" fill="white"/>
<path d="M47.4817 52.4314L47.2788 52.7818L52.0098 55.5211L52.2127 55.1707L47.4817 52.4314Z" fill="white"/>
<path d="M53.7143 43.6044L53.4536 43.9143L57.6375 47.4336L57.8982 47.1237L53.7143 43.6044Z" fill="white"/>
<path d="M61.3457 36.0284L61.0352 36.2883L64.5441 40.4804L64.8547 40.2204L61.3457 36.0284Z" fill="white"/>
<path d="M70.2147 29.8883L69.8638 30.0903L72.5914 34.8281L72.9424 34.626L70.2147 29.8883Z" fill="white"/>
<path d="M80.0169 25.3892L79.6362 25.5272L81.4996 30.6668L81.8803 30.5288L80.0169 25.3892Z" fill="white"/>
<path d="M90.4326 22.6247L90.0337 22.6945L90.9761 28.0796L91.375 28.0097L90.4326 22.6247Z" fill="white"/>
<path d="M101.185 21.7315L100.78 21.731L100.773 27.1979L101.178 27.1984L101.185 21.7315Z" fill="white"/>
<path d="M101.527 82.3501L100.524 82.3489L100.518 87.1808L101.521 87.182L101.527 82.3501Z" fill="white"/>
<path d="M111.513 22.663L110.556 28.0457L110.955 28.1165L111.912 22.7338L111.513 22.663Z" fill="white"/>
<path d="M121.933 25.4284L120.057 30.564L120.438 30.7029L122.313 25.5674L121.933 25.4284Z" fill="white"/>
<path d="M131.713 29.9681L128.974 34.6992L129.325 34.9021L132.064 30.1711L131.713 29.9681Z" fill="white"/>
<path d="M140.556 36.118L137.039 40.303L137.349 40.5635L140.866 36.3786L140.556 36.118Z" fill="white"/>
<path d="M148.185 43.7546L143.992 47.262L144.252 47.5726L148.445 44.0653L148.185 43.7546Z" fill="white"/>
<path d="M154.384 52.5414L149.646 55.269L149.849 55.62L154.586 52.8924L154.384 52.5414Z" fill="white"/>
<path d="M158.947 62.3066L153.808 64.1694L153.946 64.5501L159.085 62.6873L158.947 62.3066Z" fill="white"/>
<path d="M161.762 72.7147L156.377 73.6582L156.447 74.0571L161.832 73.1136L161.762 72.7147Z" fill="white"/>
<path d="M162.721 83.4496L157.254 83.4428L157.254 83.8478L162.721 83.8545L162.721 83.4496Z" fill="white"/>
<defs>
<clipPath id="clip0_17_16">
<rect width="7.61539" height="7.61539" fill="white" transform="translate(185.692 90.6923)"/>
</clipPath>
<clipPath id="clip1_17_16">
<rect width="7.61539" height="7.61539" fill="white" transform="translate(8.69238 90.6923)"/>
</clipPath>
<clipPath id="clip2_17_16">
<rect width="7.20711" height="7.20711" fill="white" transform="translate(96 95.0962) rotate(-45)"/>
</clipPath>
</defs>
</svg>
